<?xml version="1.0" encoding="utf-8"?>
<!-- Generator: Adobe Illustrator 18.1.1, SVG Export Plug-In . SVG Version: 6.00 Build 0)  -->
<!DOCTYPE svg PUBLIC "-//W3C//DTD SVG 1.1//EN" "http://www.w3.org/Graphics/SVG/1.1/DTD/svg11.dtd">
<svg version="1.1" id="Ebene_1" xmlns="http://www.w3.org/2000/svg" xmlns:xlink="http://www.w3.org/1999/xlink" x="0px" y="0px"
	 width="89px" height="73px" viewBox="0 0 89 73" enable-background="new 0 0 89 73" xml:space="preserve">
<path fill="#3C4250" d="M69.9,67.2L68,73c-0.5-0.2-11.2-3.8-11.2-13.6c0-11.5,9.1-14.2,9.1-24.5c0-4.7-4.3-9.6-9.8-14
	c-0.8-3.9-2.4-7.5-4.6-10.7C61,16.1,72,25,72,34.9c0,6.3-2.7,10.3-5.1,13.9c-2.2,3.2-4.1,6-4.1,10.6C62.9,64.7,69.8,67.2,69.9,67.2z
	 M54.8,27.4c0,15.2-12.3,27.4-27.4,27.4C12.3,54.9,0,42.6,0,27.4C0,12.3,12.3,0,27.4,0C42.5,0,54.8,12.3,54.8,27.4z M21.2,9.7
	c0,3.3,4.9,6.5,6.2,6.5c1.3,0,6.2-3.1,6.2-6.5c0-3.3-2-4.4-6.2-4.4C23.1,5.3,21.2,6.4,21.2,9.7z M17.2,24.4c0.4-1.2-1.1-6.9-4.2-7.9
	c-3.2-1-4.8,0.5-6.1,4.6c-1.3,4-0.9,6.2,2.3,7.2C12.3,29.4,16.8,25.7,17.2,24.4z M20.7,36.5c-1.1-0.7-6.9-0.8-8.7,2
	c-1.8,2.8-0.7,4.8,2.8,7.1c3.5,2.3,5.8,2.5,7.6-0.3C24.2,42.5,21.8,37.2,20.7,36.5z M31.5,27.4c0-2.3-1.8-4.1-4.1-4.1
	c-2.3,0-4.1,1.8-4.1,4.1c0,2.3,1.8,4.1,4.1,4.1C29.6,31.5,31.5,29.7,31.5,27.4z M42.8,38.1c-1.9-2.7-7.7-2.4-8.8-1.7
	c-1,0.7-3.2,6.1-1.3,8.9c1.9,2.7,4.2,2.4,7.6,0C43.7,42.8,44.7,40.8,42.8,38.1z M47.9,21.1c-1.3-4-2.9-5.6-6.1-4.6
	c-3.2,1-4.6,6.7-4.2,7.9c0.4,1.2,4.9,4.9,8.1,3.9C48.8,27.3,49.2,25.1,47.9,21.1z"/>
</svg>
