<?xml version="1.0" encoding="utf-8"?>
<!-- Generator: Adobe Illustrator 18.1.1, SVG Export Plug-In . SVG Version: 6.00 Build 0)  -->
<!DOCTYPE svg PUBLIC "-//W3C//DTD SVG 1.1//EN" "http://www.w3.org/Graphics/SVG/1.1/DTD/svg11.dtd">
<svg version="1.1" id="Ebene_1" xmlns="http://www.w3.org/2000/svg" xmlns:xlink="http://www.w3.org/1999/xlink" x="0px" y="0px"
	 width="89px" height="73px" viewBox="0 0 89 73" enable-background="new 0 0 89 73" xml:space="preserve">
<path fill="#3C4250" d="M21,23H8V9h13V23z M64,29H51V9h13V29z M38,9H24v2h14V9z M38,21H24v2h14V21z M38,15H24v2h14V15z M38,37H24v2
	h14V37z M38,55H24v2h14V55z M38,49H24v2h14V49z M38,43H24v2h14V43z M21,57H8V37h13V57z M38,32H8v2h30V32z M38,26H8v2h30V26z M81,9
	H67v2h14V9z M81,21H67v2h14V21z M81,15H67v2h14V15z M81,37H51v2h30V37z M81,55H51v2h30V55z M81,49H51v2h30V49z M81,43H51v2h30V43z
	 M81,32H51v2h30V32z M81,27H67v2h14V27z M89,0H0v64h89V0z M3,3h40v58H3V3z M86,3v58H46V3H86z"/>
</svg>
