<?xml version="1.0" encoding="utf-8"?>
<!-- Generator: Adobe Illustrator 18.1.1, SVG Export Plug-In . SVG Version: 6.00 Build 0)  -->
<!DOCTYPE svg PUBLIC "-//W3C//DTD SVG 1.1//EN" "http://www.w3.org/Graphics/SVG/1.1/DTD/svg11.dtd">
<svg version="1.1" id="Ebene_1" xmlns="http://www.w3.org/2000/svg" xmlns:xlink="http://www.w3.org/1999/xlink" x="0px" y="0px"
	 width="89px" height="73px" viewBox="0 0 89 73" enable-background="new 0 0 89 73" xml:space="preserve">
<path fill="#3C4250" d="M27.5,15.1c1,0,1.5,0.1,2.5,0c0.2,2.2-0.1,4.8,0,7.6l10,7.6l0,0c1.6,0.8,5,2.5,5,2.5s0-1.7,0-2.5h5
	c-0.2,2,0.2,3.5-0.5,5.4l3.5,2.2c1.2-3.2,2-6.6,2-10.2C55,12.4,42.6,0,27.5,0C12.3,0,0,12.4,0,27.7c0,15,12.8,27.3,27.5,27.8v-5
	c-0.5-1.6-2.1-4.5-2.5-7.6c0.4,0,2.1,0,2.5,0v-5c-0.5,0-2,0-2.5,0c-0.3-2.7,0.1-4,0-7.6h2.5v-5H25c0.1-3.5-0.3-7.3,0-10.1
	C26,15.2,26.5,15.1,27.5,15.1L27.5,15.1z M35,25.2c0-2.3-1.1-5.6-1.5-9.5c1.8-0.4,3.5-1,5.2-1.8c1.4,3.4,1.1,7,1.3,11.3H35z
	 M43.8,10.8c3.9,3.8,5.7,8.6,6.2,14.4h-5c-0.2-4.9-2-9-3.5-12.8C42.3,11.9,43.1,11.4,43.8,10.8L43.8,10.8z M41.4,8.8
	c-0.4,0.3-0.8,0.6-1.3,0.9c-0.6-1-1.1-2-1.8-2.8C39.4,7.4,40.5,8,41.4,8.8L41.4,8.8z M37.4,11.1c-1.4,0.6-2.8,1.2-4.3,1.5
	c-0.4-3-1-5.9-1.8-8.1C33.7,5.8,35.8,8,37.4,11.1L37.4,11.1z M27.2,4.1c0.1,0,0.2,0,0.3,0c0.1,0,0.2,0,0.3,0c0.8,1.2,1.7,4.3,2.3,9
	c-0.9,0.1-1.7-0.6-2.6-0.6c-0.9,0-1.6,0.1-2.5,0C25.7,7.9,26.4,5.4,27.2,4.1L27.2,4.1z M16.6,6.8c-0.6,0.9-1.2,1.8-1.8,2.8
	c-0.4-0.3-0.9-0.6-1.3-0.9C14.5,8,15.6,7.4,16.6,6.8L16.6,6.8z M20,25.2h-7.5c0.2-4.3,2.4-7.9,3.8-11.3c1.7,0.8,3.4,1.4,5.2,1.8
	C21.1,19.6,20.1,22.9,20,25.2L20,25.2z M21.5,39.7c-1.8,0.4-3.5,1-5.2,1.8c-1.4-3.4-3.5-6.9-3.7-11.2H20
	C20.1,32.5,21.1,35.8,21.5,39.7L21.5,39.7z M11.2,44.6C7.3,40.7,5.6,36,5.1,30.2h5c0.2,4.9,1.9,8.9,3.5,12.7
	C12.7,43.4,11.9,44,11.2,44.6L11.2,44.6z M10.1,25.2h-5c0.5-5.8,2.2-10.6,6.1-14.4c0.8,0.6,1.5,1.1,2.3,1.6
	C11.9,16.2,10.3,20.3,10.1,25.2L10.1,25.2z M13.6,46.6c0.4-0.3,0.8-0.6,1.3-0.9c0.5,1,1.1,2,1.8,2.8C15.6,48,14.5,47.3,13.6,46.6
	L13.6,46.6z M17.6,44.2c1.4-0.6,2.8-1.1,4.2-1.5c0.4,3,1,5.8,1.8,8C21.3,49.5,19.3,47.2,17.6,44.2L17.6,44.2z M21.8,12.6
	c-1.4-0.4-2.9-0.9-4.2-1.5c1.7-3,3.7-5.3,6.1-6.5C22.8,6.8,22.2,9.7,21.8,12.6L21.8,12.6z M21.8,12.6 M30,27.7V58l7.5-7.6L45,63
	l7.5-5L45,45.4h10L30,27.7z M30,27.7"/>
</svg>
