<?xml version="1.0" encoding="utf-8"?>
<!-- Generator: Adobe Illustrator 18.1.1, SVG Export Plug-In . SVG Version: 6.00 Build 0)  -->
<!DOCTYPE svg PUBLIC "-//W3C//DTD SVG 1.1//EN" "http://www.w3.org/Graphics/SVG/1.1/DTD/svg11.dtd">
<svg version="1.1" id="Ebene_1" xmlns="http://www.w3.org/2000/svg" xmlns:xlink="http://www.w3.org/1999/xlink" x="0px" y="0px"
	 width="89px" height="73px" viewBox="0 0 89 73" enable-background="new 0 0 89 73" xml:space="preserve">
<path fill="#3C4250" d="M48,3c0-1.7-1.3-3-3-3H3C1.3,0,0,1.3,0,3v58c0,1.7,1.3,3,3,3h42c1.7,0,3-1.3,3-3V3z M24.2,61.7
	c-1.1,0-2-0.9-2-2c0-1.1,0.9-2,2-2c1.1,0,2,0.9,2,2C26.2,60.8,25.4,61.7,24.2,61.7z M45,56H3V3h42V56z M39,13.7L38.3,15l0,0.7
	l-0.7,0.4L37.4,18l-1-0.3l-2.2-5.6l1.7-1.8l1.4,0.4l1.2,2L39,13.7z M35.5,34.7l-0.4-1.5l-2.5-1.8L28.9,31l-0.6,0.9l-0.8-0.3
	l-0.4-1.4L26,30.2l0.5-1.3l-0.9-0.1l-0.9,0.7l-0.7-0.9l0.5-1.6l2.4-0.4l0.1,1.3l0.1-0.1v-1.2l2.4-2.4l2.8-1.2l3-1.3l-2-4.5l-0.9,0.6
	l-0.7-2l-1.8,0.1l-0.5,3.6l-0.7,0.1l-2.8-2.9l0.2-1.5l2.2-0.5v-3.5l-6.5,0.8l-3.2-2.1l-1.6,1.6L12.2,9L9.6,11l0.9,2h-1l-0.3,0.4
	l1.4-0.3l-1.4,1l0.5,1.5l1.2,0.3l-2,1.5V18l3-2l1.6-0.9l2.5,1.7l1.8,3.6v3.2l1.6,2.4l2.5,3.3l2.6,0.9l1.1,0.6l1.3,1.7l0.9-0.1
	l-1,1.6l0.8,3.3l2.8,2.5L26.9,47l1.4,2.1l2.2,0.6l-1.3-1.4l1.8-3.3l3.8-3.2l0.3-1.5l1.9-0.3l2.1-3.8L35.5,34.7z"/>
</svg>
