<?xml version="1.0" encoding="utf-8"?>
<!-- Generator: Adobe Illustrator 18.1.1, SVG Export Plug-In . SVG Version: 6.00 Build 0)  -->
<!DOCTYPE svg PUBLIC "-//W3C//DTD SVG 1.1//EN" "http://www.w3.org/Graphics/SVG/1.1/DTD/svg11.dtd">
<svg version="1.1" id="Ebene_1" xmlns="http://www.w3.org/2000/svg" xmlns:xlink="http://www.w3.org/1999/xlink" x="0px" y="0px"
	 width="89px" height="73px" viewBox="0 0 89 73" enable-background="new 0 0 89 73" xml:space="preserve">
<g>
	<path fill="#3C4250" d="M64.6,16.2v5.4h-5.4v-2.7h-2.7v2.7h-5.4v-8.1h-2.7v8.1h-2.7V5.4H43v16.2h-5.4v-5.4H35v5.4h-5.4v-8.1h-2.7
		v8.1h-5.4v-5.4h-2.7v5.4h-5.4V0h-2.7v21.6H2.7v-2.7H0V27h2.7v-2.7h8.1v18.9h2.7V24.3h5.4v5.4h2.7v-5.4h5.4v8.1h2.7v-8.1H35v5.4h2.7
		v-5.4H43v16.2h2.7V24.3h2.7v8.1h2.7v-8.1h5.4V27h2.7v-2.7h5.4v5.4h2.7V16.2H64.6z"/>
	<g>
		<polygon fill-rule="evenodd" clip-rule="evenodd" fill="#3C4250" points="72,32.6 79.8,40.4 72,48.3 		"/>
		<path fill-rule="evenodd" clip-rule="evenodd" fill="#3C4250" d="M74.3,25.5c-8.1,0-14.7,6.6-14.7,14.7S66.2,55,74.3,55
			C82.4,55,89,48.4,89,40.3S82.4,25.5,74.3,25.5z M74.3,51.7c-6.3,0-11.4-5.1-11.4-11.4s5.1-11.4,11.4-11.4
			c6.3,0,11.4,5.1,11.4,11.4S80.6,51.7,74.3,51.7z"/>
		<polygon fill-rule="evenodd" clip-rule="evenodd" fill="#3C4250" points="79.8,40.4 72,48.3 72,32.6 		"/>
		<polygon fill-rule="evenodd" clip-rule="evenodd" fill="#3C4250" points="79.8,40.4 72,48.3 72,32.6 		"/>
	</g>
</g>
</svg>
