<?xml version="1.0" encoding="utf-8"?>
<!-- Generator: Adobe Illustrator 18.1.1, SVG Export Plug-In . SVG Version: 6.00 Build 0)  -->
<!DOCTYPE svg PUBLIC "-//W3C//DTD SVG 1.1//EN" "http://www.w3.org/Graphics/SVG/1.1/DTD/svg11.dtd">
<svg version="1.1" id="Ebene_1" xmlns="http://www.w3.org/2000/svg" xmlns:xlink="http://www.w3.org/1999/xlink" x="0px" y="0px"
	 width="89px" height="73px" viewBox="0 0 89 73" enable-background="new 0 0 89 73" xml:space="preserve">
<path fill="#3C4250" d="M53.5,32.2c-1-1.3-2.4-2-4.2-2c-0.9,0-1.9,0.2-2.7,0.5c-0.9,0.3-1.6,0.7-2.1,1.1c-0.5,0.4-1.1,0.8-1.8,1.1
	c-0.6,0.3-1.2,0.5-1.7,0.5c-1,0-2-0.5-2.9-1.6c-0.8-0.8-1.2-2.1-1.2-3.9c0-2.1,0.3-4.9,0.8-8.3c0-0.1,0.1-0.3,0.1-0.7
	c0.1-0.4,0.1-0.8,0.2-1.1c0.1-0.3,0.1-0.5,0.1-0.6v-0.1c-1,0-2.8,0.2-5.4,0.6c-2.6,0.3-4.5,0.5-5.9,0.5c-1.3,0-2.5-0.3-3.4-0.9
	c-0.9-0.6-1.4-1.5-1.4-2.8c0-0.8,0.2-1.6,0.6-2.4c0.4-0.8,0.8-1.4,1.3-1.9c0.5-0.5,0.9-1.2,1.3-2c0.4-0.8,0.6-1.7,0.6-2.6
	c0-1.8-0.6-3.2-1.8-4.2c-1.2-1-2.7-1.5-4.4-1.5c-1.9,0-3.5,0.5-4.8,1.5c-1.3,1-2,2.5-2,4.3c0,1,0.2,1.9,0.5,2.8
	c0.3,0.9,0.7,1.6,1.1,2.2c0.4,0.5,0.8,1.1,1.1,1.8c0.3,0.6,0.5,1.2,0.5,1.7c0,1-0.5,2-1.5,3c-0.8,0.8-2.1,1.2-3.9,1.2
	c-2.1,0-4.8-0.3-8.1-0.8c-0.1,0-0.3-0.1-0.7-0.1c-0.4-0.1-0.8-0.1-1.1-0.2C0.2,17.3,0,17.3,0,17.3v34.5c0,0,0,0,0.1,0
	c0,0,0.1,0,0.1,0l0.4,0.1c0.2,0,0.5,0.1,0.9,0.1c0.4,0,0.7,0.1,0.9,0.1c3.3,0.5,6,0.8,8.1,0.8c1.8,0,3.1-0.4,3.9-1.2
	c1-1,1.5-2,1.5-3c0-0.5-0.2-1.1-0.5-1.7c-0.3-0.6-0.7-1.2-1.1-1.8c-0.4-0.6-0.8-1.3-1.1-2.2c-0.3-0.9-0.5-1.8-0.5-2.8
	c0-1.8,0.6-3.3,1.9-4.3c1.3-1,2.9-1.5,4.7-1.5c1.8,0,3.3,0.5,4.5,1.5c1.2,1,1.8,2.4,1.8,4.2c0,0.9-0.2,1.8-0.6,2.6
	c-0.4,0.8-0.8,1.5-1.3,2c-0.5,0.5-0.9,1.1-1.3,1.9c-0.4,0.8-0.6,1.6-0.6,2.4c0,1.3,0.5,2.2,1.4,2.8c0.9,0.6,2.1,0.9,3.4,0.9
	c1,0,2.1-0.1,3.2-0.2c1.1-0.1,2.4-0.3,3.8-0.5c1.4-0.2,2.5-0.3,3.2-0.4c0.2,0,0.6,0,1.1,0v-0.2c0-0.9-0.1-2.2-0.5-3.9
	c-0.4-1.7-0.5-3-0.5-3.9c0-2.8,1.2-4.2,3.6-4.2c0.8,0,1.6,0.2,2.3,0.6c0.7,0.4,1.4,0.8,1.9,1.3c0.5,0.5,1.1,0.9,2,1.3
	c0.8,0.4,1.7,0.6,2.6,0.6c1.7,0,3.1-0.6,4.1-1.8c1-1.2,1.5-2.7,1.5-4.6C55,35.1,54.5,33.5,53.5,32.2L53.5,32.2z M53.5,32.2"/>
</svg>
