<?xml version="1.0" encoding="utf-8"?>
<!-- Generator: Adobe Illustrator 18.1.1, SVG Export Plug-In . SVG Version: 6.00 Build 0)  -->
<!DOCTYPE svg PUBLIC "-//W3C//DTD SVG 1.1//EN" "http://www.w3.org/Graphics/SVG/1.1/DTD/svg11.dtd">
<svg version="1.1" id="Ebene_1" xmlns="http://www.w3.org/2000/svg" xmlns:xlink="http://www.w3.org/1999/xlink" x="0px" y="0px"
	 width="178px" height="146px" viewBox="0 0 89 73" enable-background="new 0 0 89 73" xml:space="preserve">
<path fill="#3C4250" d="M34.7,5.5H65c1.4,0,2,0.6,2,2v44.7c0,1.4-0.6,2.8-2,2.8h-58c-1.6,0-2.8-1.5-2.8-3L0,25.1
	C0,23.5,1.3,22,2.8,22h2.1V7.5c0-1.4,1.1-2.4,2.5-2.4c0,0,2.7-0.1,2.7-2.7c0-1.3,1.1-2.5,2.5-2.5h18c1.3,0,2.2,1.3,2.2,2.6
	C32.8,5.2,34.7,5.5,34.7,5.5z M62.6,11H9.3v11h47.9c1.6,0,2.4,1.4,2.4,3l3,26V11z"/>
</svg>
