<?xml version="1.0" encoding="utf-8"?>
<!-- Generator: Adobe Illustrator 18.1.1, SVG Export Plug-In . SVG Version: 6.00 Build 0)  -->
<!DOCTYPE svg PUBLIC "-//W3C//DTD SVG 1.1//EN" "http://www.w3.org/Graphics/SVG/1.1/DTD/svg11.dtd">
<svg version="1.1" id="Ebene_1" xmlns="http://www.w3.org/2000/svg" xmlns:xlink="http://www.w3.org/1999/xlink" x="0px" y="0px"
	 width="178px" height="146px" viewBox="0 0 89 73" enable-background="new 0 0 89 73" xml:space="preserve">
<path fill="#3C4250" d="M39,23H9V9h30V23z M22,26H9v25h13V26z M39,26H25v10h14V26z M39,39H25v12h14V39z M48,3v58c0,1.7-1.3,3-3,3H3
	c-1.7,0-3-1.3-3-3V3c0-1.7,1.3-3,3-3h42C46.7,0,48,1.3,48,3z M26.2,59.9c0-1.1-0.9-2-2-2c-1.1,0-2,0.9-2,2c0,1.1,0.9,2,2,2
	C25.4,61.9,26.2,61,26.2,59.9z M45,3H3v53h42V3z"/>
</svg>
