<?xml version="1.0" encoding="utf-8"?>
<!-- Generator: Adobe Illustrator 18.1.1, SVG Export Plug-In . SVG Version: 6.00 Build 0)  -->
<!DOCTYPE svg PUBLIC "-//W3C//DTD SVG 1.1//EN" "http://www.w3.org/Graphics/SVG/1.1/DTD/svg11.dtd">
<svg version="1.1" id="Ebene_1" xmlns="http://www.w3.org/2000/svg" xmlns:xlink="http://www.w3.org/1999/xlink" x="0px" y="0px"
	 width="178px" height="146px" viewBox="0 0 89 73" enable-background="new 0 0 89 73" xml:space="preserve">
<path fill="#3C4250" d="M20.8,46c0.1,1,0.3,1.6,1.1,2.4s1.8,1.4,3.3,1.4c1.5,0,3.2-1.1,3.6-3c0.3-1.9-0.5-5.6-0.6-6.8
	c1.6-0.8,3.1-3.3,3.3-4.9c0.3-1.8-0.3-3.9-1.3-5.4c-0.9-1.2-2.3-2-3.8-2c-0.2,0-0.3,0-0.5,0c-0.1-0.3-1.3-4.4-1.3-4.4
	s1.1-0.7,3.1-3.3c2-2.6,2.4-7,1-10.1c-0.4-1.1-1.6-2.1-2.8-2.1c-0.9,0-1.6,0.8-2.1,1.8c-1.5,2.8-2.3,7.9-1.6,11.5
	c0,0,0.1,0.9-0.6,1.9c-1.5,1.8-3.1,3.8-3.7,6.4c-0.7,2.9-0.2,5.7,1.5,7.8c1.8,2.5,4.4,3.6,7.7,3.3c0.6,3.1,0.8,5.9,0.1,6.9
	c-0.6,0.9-1.7,1.4-2.5,0.6c1.1-0.4,1.8-1.3,1.8-2.4c0-1.4-1.2-2.6-2.7-2.6c-1.4,0-2.7,1-2.8,2.3C20.9,45.3,20.8,45.7,20.8,46z
	 M25.3,11.6c0.2-0.3,0.4-0.5,0.7-0.5c0.2,0,0.5,0.2,0.6,0.3c0.6,0.3,0.7,1,0.7,2c-0.2,2.5-1.9,4.6-2.9,5.5
	C24,16.7,24.1,13.3,25.3,11.6z M21,37.3c-0.9-1-1.4-2.8-1.4-4c0-0.2,0-0.3,0-0.5c-0.1-2,1.1-4.5,1.8-5.4c0.7-0.9,1.1-1.3,2-1.9
	c0.5,1.1,0.5,1.1,0.9,2.3c-2.1,1.5-2.8,3.9-2.7,6c0,1,0.3,1.6,0.7,2.3c0.1,0.2,0.3,0.3,0.4,0.3c0.2,0,0.4-0.2,0.4-0.3
	c0.1-0.2,0.1-0.5,0-0.7c-0.2-0.2-0.2-0.3-0.2-0.7c-0.1-1.5,0.7-2.6,1.8-3.1c0.2,1,1.2,6.1,1.3,7.2C24.4,39.6,22.4,38.9,21,37.3z
	 M27.7,38.3c-0.3-1.1-0.5-2.5-0.7-3.9c-0.1-1-0.3-2.1-0.6-3.1c1.9,0,2.5,1.8,2.7,2.5C29.5,35.5,29,37.3,27.7,38.3z M48,3
	c0-1.7-1.3-3-3-3H3C1.3,0,0,1.3,0,3v58c0,1.7,1.3,3,3,3h42c1.7,0,3-1.3,3-3V3z M24.2,61.7c-1.1,0-2-0.9-2-2c0-1.1,0.9-2,2-2
	c1.1,0,2,0.9,2,2C26.2,60.8,25.4,61.7,24.2,61.7z M45,56H3V3h42V56z"/>
</svg>
