<?xml version="1.0" encoding="utf-8"?>
<!-- Generator: Adobe Illustrator 18.1.1, SVG Export Plug-In . SVG Version: 6.00 Build 0)  -->
<!DOCTYPE svg PUBLIC "-//W3C//DTD SVG 1.1//EN" "http://www.w3.org/Graphics/SVG/1.1/DTD/svg11.dtd">
<svg version="1.1" id="Ebene_1" xmlns="http://www.w3.org/2000/svg" xmlns:xlink="http://www.w3.org/1999/xlink" x="0px" y="0px"
	 width="178px" height="146px" viewBox="0 0 89 73" enable-background="new 0 0 89 73" xml:space="preserve">
<path fill-rule="evenodd" clip-rule="evenodd" fill="#3C4250" d="M48,29.6V8.7L13,0v28.2C0,26.4-4.3,41.4,4.9,45.9
	c6,2.9,14.1-0.6,14.1-9V8.7L42,13v14.1c-1-0.2-1.6-0.2-2.5-0.2c-8.6,0-15.4,7-15.4,15.6S31.1,58,39.6,58C48.2,58,55,51,55,42.4
	C55,37.1,52,32.4,48,29.6z M39.6,54.5c-6.6,0-12-5.4-12-12s5.3-12,11.9-12c0.9,0,1.6,0.1,2.6,0.3c3,0.5,5,1.7,6,3.4
	c2,2.2,3.5,5.1,3.5,8.3C51.5,49.1,46.2,54.5,39.6,54.5z M45.3,42.6L37,50.9V34.4L45.3,42.6z"/>
</svg>
