<?xml version="1.0" encoding="utf-8"?>
<!-- Generator: Adobe Illustrator 18.1.1, SVG Export Plug-In . SVG Version: 6.00 Build 0)  -->
<!DOCTYPE svg PUBLIC "-//W3C//DTD SVG 1.1//EN" "http://www.w3.org/Graphics/SVG/1.1/DTD/svg11.dtd">
<svg version="1.1" id="Ebene_1" xmlns="http://www.w3.org/2000/svg" xmlns:xlink="http://www.w3.org/1999/xlink" x="0px" y="0px"
	 width="178px" height="146px" viewBox="0 0 89 73" enable-background="new 0 0 89 73" xml:space="preserve">
<path fill-rule="evenodd" clip-rule="evenodd" fill="#3C4250" d="M0,0v64h67V0H0z M51,3h5v5h-5V3z M43,3h5v5h-5V3z M35,3h5v5h-5V3z
	 M27,3h5v5h-5V3z M19,3h5v5h-5V3z M11,3h5v5h-5V3z M3,3h5v5H3V3z M64,51H3V14h61V51z M64,8h-5V3h5V8z M51,56h5v5h-5V56z M43,56h5v5
	h-5V56z M35,56h5v5h-5V56z M27,56h5v5h-5V56z M19,56h5v5h-5V56z M11,56h5v5h-5V56z M3,56h5v5H3V56z M64,61h-5v-5h5V61z"/>
</svg>
