<?xml version="1.0" encoding="utf-8"?>
<!-- Generator: Adobe Illustrator 18.1.1, SVG Export Plug-In . SVG Version: 6.00 Build 0)  -->
<!DOCTYPE svg PUBLIC "-//W3C//DTD SVG 1.1//EN" "http://www.w3.org/Graphics/SVG/1.1/DTD/svg11.dtd">
<svg version="1.1" id="Ebene_1" xmlns="http://www.w3.org/2000/svg" xmlns:xlink="http://www.w3.org/1999/xlink" x="0px" y="0px"
	 width="178px" height="146px" viewBox="0 0 89 73" enable-background="new 0 0 89 73" xml:space="preserve">
<path fill="#3C4250" d="M48,3c0-1.7-1.3-3-3-3H3C1.3,0,0,1.3,0,3v58c0,1.7,1.3,3,3,3h42c1.7,0,3-1.3,3-3V3z M25.2,61.7
	c-1.1,0-2-0.9-2-2c0-1.1,0.9-2,2-2c1.1,0,2,0.9,2,2C27.2,60.8,26.4,61.7,25.2,61.7z M45,56H3V3h42V56z M42,11H6v36h36V11z M39,40
	h-1.6c-1.6-5-1.8-10.4-5.1-10.4c-3.7,0-5.1,10.2-5.1,10.2s0.3-10.1-4.7-15.4C17.3,19,14.3,40,14.3,40H9V14h30V40z M40,38.7
	 M18.4,19.9c0,1.5-1.6,3-3,3c-1.4,0-3-1.5-3-3c0-1.5,1.6-3,3-3C16.8,16.8,18.5,18.1,18.4,19.9L18.4,19.9z M29.3,21.7
	c0.7,0,1.3-0.1,1.8-0.2c0.6,0.3,1.4,0.5,2.2,0.5c2.1,0,3.9-1.1,3.9-2.5c0-1.4-1.7-2.5-3.9-2.5c-0.8,0-1.6,0.2-2.2,0.4
	c-0.2-0.3-0.6-0.4-1-0.4h-0.6c-0.7,0-1.3,0.6-1.4,1.3c-1.7,0.2-3,0.9-3,1.7C25.2,20.9,27,21.7,29.3,21.7L29.3,21.7z M29.3,21.7"/>
</svg>
