<?xml version="1.0" encoding="utf-8"?>
<!-- Generator: Adobe Illustrator 18.1.1, SVG Export Plug-In . SVG Version: 6.00 Build 0)  -->
<!DOCTYPE svg PUBLIC "-//W3C//DTD SVG 1.1//EN" "http://www.w3.org/Graphics/SVG/1.1/DTD/svg11.dtd">
<svg version="1.1" id="Ebene_1" xmlns="http://www.w3.org/2000/svg" xmlns:xlink="http://www.w3.org/1999/xlink" x="0px" y="0px"
	 width="178px" height="146px" viewBox="0 0 89 73" enable-background="new 0 0 89 73" xml:space="preserve">
<path fill="#3C4250" d="M64.3,0H2.7C1.9,0,0,2,0,2.8v58.4C0,62,2.7,64,2.7,64h61.6c0.7,0,2.7-2,2.7-2.8V2.8C67,2,65.1,0,64.3,0
	L64.3,0z M61.6,47.3h-5.4c-2.4-6.7-3-15-8.1-15.3c-5.4-0.3-7.8,14.8-7.8,14.8s-2.7-15-10-23.1C23,15.7,16.1,47.3,16.1,47.3H5.4V5.6
	h56.3V47.3z M61.6,47.3 M21.4,16.7c0,2.8-2.8,5.6-5.4,5.6c-2.5,0-5.4-2.8-5.4-5.6c0-2.8,2.9-5.6,5.4-5.6
	C18.6,11.1,21.4,13.9,21.4,16.7L21.4,16.7z M45.7,18.9c1,0,2-0.1,2.8-0.3c1,0.5,2.2,0.7,3.5,0.7c3.3,0,6.1-1.8,6.1-4
	c0-2.2-2.7-4-6.1-4c-1.3,0-2.4,0.3-3.4,0.7c-0.4-0.4-0.9-0.7-1.5-0.7h-0.9c-1.1,0-2,0.9-2.1,2.1c-2.7,0.3-4.7,1.4-4.7,2.7
	C39.4,17.6,42.2,18.9,45.7,18.9L45.7,18.9z M45.7,18.9"/>
</svg>
