<?xml version="1.0" encoding="utf-8"?>
<!-- Generator: Adobe Illustrator 18.1.1, SVG Export Plug-In . SVG Version: 6.00 Build 0)  -->
<!DOCTYPE svg PUBLIC "-//W3C//DTD SVG 1.1//EN" "http://www.w3.org/Graphics/SVG/1.1/DTD/svg11.dtd">
<svg version="1.1" id="Ebene_1" xmlns="http://www.w3.org/2000/svg" xmlns:xlink="http://www.w3.org/1999/xlink" x="0px" y="0px"
	 width="89px" height="70px" viewBox="0 0 89 70" enable-background="new 0 0 89 70" xml:space="preserve">
<path fill="#3C4250" d="M23,23H9V9h14V23z M40,11H26V9h14V11z M40,23H26v-2h14V23z M40,17H26v-2h14V17z M40,39H26v-2h14V39z M40,51
	H26v-2h14V51z M40,45H26v-2h14V45z M23,51H9V37h14V51z M40,34H9v-2h31V34z M40,28H9v-2h31V28z M48,3c0-1.7-1.3-3-3-3H3
	C1.3,0,0,1.3,0,3v58c0,1.7,1.3,3,3,3h42c1.7,0,3-1.3,3-3V3z M25.8,61.9c-1.1,0-2-0.9-2-2c0-1.1,0.9-2,2-2c1.1,0,2,0.9,2,2
	C27.8,61,26.9,61.9,25.8,61.9z M45,56H3V3h42V56z"/>
</svg>
