<?xml version="1.0" encoding="utf-8"?>
<!-- Generator: Adobe Illustrator 18.1.1, SVG Export Plug-In . SVG Version: 6.00 Build 0)  -->
<!DOCTYPE svg PUBLIC "-//W3C//DTD SVG 1.1//EN" "http://www.w3.org/Graphics/SVG/1.1/DTD/svg11.dtd">
<svg version="1.1" id="Ebene_1" xmlns="http://www.w3.org/2000/svg" xmlns:xlink="http://www.w3.org/1999/xlink" x="0px" y="0px"
	 width="89px" height="73px" viewBox="0 0 89 73" enable-background="new 0 0 89 73" xml:space="preserve">
<path fill="#3C4250" d="M85.6,8.1v-5c0,0-7.2-2.7-15.4-3.1c-9.5-0.5-18.5,2.7-25.2,8.1c-6.7-5.4-13.9-8.1-23.5-8.1
	c-8.9,0-15.5,2.5-15.8,2.6L4.5,3.3v4.8C1.1,8.6,0,8.3,0,9.7C0,17,0,62.2,0,62.2h42c0.7,1,2.2,1.8,3.6,1.8c1.5,0,2.9-0.8,3.6-1.8H89
	c0,0,0-50,0-52.5C89,8.6,86.7,8,85.6,8.1z M43.9,59.1c-2.3-1.3-13.8-5-25.5-5c-4.6,0-7.2,0.5-10.7,1.8V6.3C10.1,5.7,14.2,4,21,4
	c9,0,13.9,2.2,20.7,7.1v30.4l2.3-1.6V59.1z M82.4,55.9c-3.4-1.3-6.1-1.8-10.7-1.8c-11.7,0-23.2,3.7-25.5,5V39.9l2.3,1.6V11.1
	C55.2,6.2,60.1,4,69.1,4c6.8,0,11,1.7,13.3,2.3V55.9z M22.5,28c0-0.8,0-17,0-17s-2.5-1.1-5.5-1c-3.1,0.1-5.5,1-5.5,1v17.5
	C11.5,28.5,16.1,27.2,22.5,28z M35.4,48.9l0,1.8c-3-1.3-7-2.3-11.5-2.9c-4.7-0.5-8.5-0.4-12.5,0.2l0-1.8c4-0.7,7.8-0.8,12.6-0.2
	C28.5,46.6,32.4,47.6,35.4,48.9z M35.4,41.9l0,1.8c-3-1.3-7-2.3-11.5-2.9c-4.7-0.5-8.5-0.4-12.5,0.2l0-1.8c4-0.7,7.8-0.8,12.6-0.2
	C28.5,39.6,32.4,40.6,35.4,41.9z M35.4,34.9l0,1.8c-3-1.3-7-2.3-11.5-2.9c-4.7-0.5-8.5-0.4-12.5,0.2l0-1.8c4-0.7,7.8-0.8,12.6-0.2
	C28.5,32.6,32.4,33.6,35.4,34.9z M35.5,30.1c-2.9-1.4-7.1-2.5-11-3v-2c3.9,0.6,8.1,1.7,11,3L35.5,30.1z M35.5,23.1
	c-2.9-1.4-7.1-2.5-11-3v-2c3.9,0.6,8.1,1.7,11,3L35.5,23.1z M35.5,16.1c-2.9-1.4-7.1-2.5-11-3v-2c3.9,0.6,8.1,1.7,11,3L35.5,16.1z
	 M64.9,39.1c4.7-0.6,8.6-0.4,12.6,0.2l0,1.8c-4-0.6-7.8-0.8-12.5-0.2c-4.5,0.5-8.5,1.5-11.5,2.9l0-1.8
	C56.5,40.6,60.5,39.6,64.9,39.1z M64.9,32.1c4.8-0.5,8.6-0.3,12.6,0.4l-0.1,1.8c-4-0.7-7.8-0.9-12.5-0.4c-4.5,0.5-8.5,1.4-11.5,2.7
	l0.1-1.8C56.5,33.5,60.5,32.5,64.9,32.1z M64.9,25.1c4.7-0.6,8.6-0.4,12.6,0.2l0,1.8c-4-0.6-7.8-0.8-12.5-0.2
	c-4.5,0.5-8.5,1.5-11.5,2.9l0-1.8C56.5,26.6,60.5,25.6,64.9,25.1z M64.9,18.1c4.7-0.6,8.6-0.4,12.6,0.2l0,1.8
	c-4-0.6-7.8-0.8-12.5-0.2c-4.5,0.5-8.5,1.5-11.5,2.9l0-1.8C56.5,19.6,60.5,18.6,64.9,18.1z M64.9,11.1c4.7-0.6,8.6-0.4,12.6,0.2
	l0,1.8c-4-0.6-7.8-0.8-12.5-0.2c-4.5,0.5-8.5,1.5-11.5,2.9l0-1.8C56.5,12.6,60.5,11.6,64.9,11.1z M64.9,46.1
	c4.7-0.6,8.6-0.4,12.6,0.2l0,1.8c-4-0.6-7.8-0.8-12.5-0.2c-4.5,0.5-8.5,1.5-11.5,2.9l0-1.8C56.5,47.6,60.5,46.6,64.9,46.1z"/>
</svg>
