<?xml version="1.0" encoding="utf-8"?>
<!-- Generator: Adobe Illustrator 18.1.1, SVG Export Plug-In . SVG Version: 6.00 Build 0)  -->
<!DOCTYPE svg PUBLIC "-//W3C//DTD SVG 1.1//EN" "http://www.w3.org/Graphics/SVG/1.1/DTD/svg11.dtd">
<svg version="1.1" id="Ebene_1" xmlns="http://www.w3.org/2000/svg" xmlns:xlink="http://www.w3.org/1999/xlink" x="0px" y="0px"
	 width="89px" height="73px" viewBox="0 0 89 73" enable-background="new 0 0 89 73" xml:space="preserve">
<path fill="#3C4250" d="M89,0H0v64h89V0z M3,3h40v58H3V3z M86,3v58H46V3H86z M35.1,19.1l-0.6,1.2l0,0.6l-0.6,0.4l-0.1,1.6l-0.9-0.2
	l-1.9-4.9l1.5-1.6l1.2,0.3l1,1.7L35.1,19.1z M32,37.3L31.7,36l-2.2-1.6l-3.3-0.3l-0.5,0.8l-0.7-0.2l-0.3-1.2l-1-0.1l0.4-1.1
	l-0.8-0.1l-0.8,0.6L22,32l0.4-1.4l2.1-0.3l0.2,1.1l0.2-0.1v-1l1.9-2.1l2.3-1l2.5-1.1l-1.8-3.9l-0.8,0.5l-0.6-1.8L26.9,21l-0.4,3.1
	l-0.6,0.1l-2.4-2.5l0.4-1.3l2.2-0.5v-3l-5.9,0.7l-2.9-1.8l-1.5,1.4l-4-2.1l-2.2,1.4l0.8,1.5H9.5l-0.2,0.6l1.2-0.2l-1.2,1l0.4,1.4
	l1.1,0.2L9,22.3v0.5l2.6-1.8l1.4-0.8l2.3,1.4l1.7,3.1v2.8l1.3,2.1l2.1,2.9l2.3,0.8l1,0.5l1.1,1.4l0.8-0.1l-0.9,1.4l0.7,2.9l2.4,2.2
	L24.6,48l1.2,1.8l1.9,0.5l-1.1-1.2l1.5-2.9l3.3-2.8l0.2-1.3l1.6-0.2l1.8-3.3L32,37.3z M61.3,38.8l-0.9,0.7l0,1.3l0.5,0.2l0.5-1.6
	L61.3,38.8z M53.8,26.1l-0.1,0.4L53,26.8v-1.2L52.5,27h-0.6l0-0.9l0.5-0.7l0-0.5l0.5-0.4L53.8,26.1z M72.4,36.2l-0.5,1.5l-1.1-0.2
	l-0.2-0.6l1.5-0.9L72.4,36.2z M81.7,43.1l-0.6,0.8l-0.8,1.1l-0.8-0.1l1.3-1.2l-0.1-1.1l0.6,0.5L81.7,43.1z M77.1,38.6L76.2,38
	L76,38.3l-0.7,0l-1.1-1.1L75,37l1.7,0.8L77.1,38.6z M77.7,40.8L77.3,43l-0.8,0.4l-1-0.3l-0.2-0.7l-0.4,0.2l-0.8-0.4l-2,0.5l-0.5-0.3
	l0.1-0.4l-0.3-1.8l1.4-0.5l1.3-1.2l1,0.1l-0.2,0.6l0.9,0.3l0.1-1l0.7,1.2L77.7,40.8z M76.6,29.7L76,30.2l-0.1,1l-1.8,1l0-0.6l1-0.7
	l0.8-1.5l0-1.4h0.3l0.1,0.5l-0.3,0.8L76.6,29.7z M81.9,24.8l-0.4-1.1c0,0-9.8-3.8-10.9-3.8c-1.2,0-6.9,2.9-10.6,3.3l-3.2-0.6
	l-1.3,0.7l-0.5,1.2L54.3,25l0,1l0.3,0.2l0.7-0.4l0.3,1l0.6-0.2l0.4-1l-0.4-0.4l0.4-0.8l0.4-0.5l0.3,0l-0.2,0.6l-0.3,0.2l0.1,0.2l0,0
	l0,0l0.2,0.6l0.7-0.2l0.2,0.3l-0.8,0.2l0.2,0.6L57,26.3l-0.4,0.9l-1.3,0l-0.2-0.6L54.8,27l0.1,0.4l-0.5,0l-0.6,0.7l-1.1,0.3l0.3,0.6
	l0.4,0.7l-1.4-0.1l0.1,1.3l1.1,0.2l0.7-1.1l1-0.5l0.4,0.5l0.6,0.8l0.4-0.5l-0.9-0.6l0-0.5l0.4,0.2l0.7,0.5l0,0.5l0.5,0.6l0.2-0.8
	l0.3,0.1l0.4,0.6l1.1,0.2L59,31.8l-0.4,0.3l-1.7-0.4l-0.4,0.6l-1.1-0.7l-0.2-0.7l-2.7,0.4l-1.4,1.6l-0.2,2.2l1.4,1.3l2.6-0.2
	l0.8,2.2l-0.3,1.3l1.2,2.8l1.4-0.2l1.4-2.5l0.8-0.6l-0.2-1.7l1.3-1.2l0.4-1.4l-1.3,0.6l-1.4-3l0.3-0.1l1.3,2.5l2.6-1.5L62.2,33
	l-0.7,0.3l-0.4-1l0.3-0.2l0.6,0.5l2,0.4l0.8,1l1.1,1.8l1-0.6v-0.7l1.2-1.1l0.4,1.2l0.4-0.1l0.1,1.2l0.5,0.9l-1.1-0.5l0.8,1.1
	l0.9,0.8l2.1,0.4l-1.1-0.4l-0.8-0.3l-0.3-1.3l-0.7-0.7l0-0.7l0.8,0.8l0.8-0.6l-0.7-1l0.3-0.5l1.6-0.1l0.7-1.2l-0.5-1.4l0.6-0.6
	l0.5,0.6l0.2,0.8l0.5-0.3l-0.2-0.8l0.5-0.6l0.8-0.1l0.9-2.3l-0.8-0.5l1-1l1.4,0.1l1.1-0.9l0.9-0.1l-1.4,1.6l0,1.4l1.1-1.3l0-0.9
	l1.1-0.2L81.9,24.8z M59.9,30.4l-0.7-0.2l-1,0.2l-0.2-0.4l0.5-0.9l1.8,0.9L59.9,30.4z M61.1,30.9l0.2-0.6l-0.3-0.9l1.1-0.5v0.5
	l-0.4,0.2l0.3,0.5l0.2,1L61.1,30.9z"/>
</svg>
