<?xml version="1.0" encoding="utf-8"?>
<!-- Generator: Adobe Illustrator 18.1.1, SVG Export Plug-In . SVG Version: 6.00 Build 0)  -->
<!DOCTYPE svg PUBLIC "-//W3C//DTD SVG 1.1//EN" "http://www.w3.org/Graphics/SVG/1.1/DTD/svg11.dtd">
<svg version="1.1" id="Ebene_1" xmlns="http://www.w3.org/2000/svg" xmlns:xlink="http://www.w3.org/1999/xlink" x="0px" y="0px"
	 width="89px" height="73px" viewBox="0 0 89 73" enable-background="new 0 0 89 73" xml:space="preserve">
<path fill="#3C4250" d="M8.3,18.1c0,0-6.5,20.3-8.3,28l10.2-11.8c-0.9-2,0.2-6.2,1.7-7.9c2.1-2.3,7.1-3.2,9.3-1.1
	c2.3,2.1,2.1,6.8,0,9c-1.6,1.8-6.5,3.3-8.4,2.3L0.9,47l25.8-9l11.1-16.3L24.9,9L8.3,18.1z M34.1,0l-7.4,7.2l12.9,12.7l7.4-7.2
	L34.1,0z M34.1,0"/>
</svg>
