<?xml version="1.0" encoding="utf-8"?>
<!-- Generator: Adobe Illustrator 18.1.1, SVG Export Plug-In . SVG Version: 6.00 Build 0)  -->
<!DOCTYPE svg PUBLIC "-//W3C//DTD SVG 1.1//EN" "http://www.w3.org/Graphics/SVG/1.1/DTD/svg11.dtd">
<svg version="1.1" id="Ebene_1" xmlns="http://www.w3.org/2000/svg" xmlns:xlink="http://www.w3.org/1999/xlink" x="0px" y="0px"
	 width="89px" height="73px" viewBox="0 0 89 73" enable-background="new 0 0 89 73" xml:space="preserve">
<path fill="#3C4250" d="M0,55h20V0H0V55z M10,48.8c-2.8,0-5-2.2-5-5s2.2-5,5-5s5,2.2,5,5S12.8,48.8,10,48.8z M3,3h14v27H3V3z M24,55
	h20V0H24V55z M34,48.8c-2.8,0-5-2.2-5-5s2.2-5,5-5s5,2.2,5,5S36.8,48.8,34,48.8z M27,3h14v27H27V3z M48,0v55h20V0H48z M58,48.8
	c-2.8,0-5-2.2-5-5s2.2-5,5-5s5,2.2,5,5S60.8,48.8,58,48.8z M65,30H51V3h14V30z"/>
</svg>
