<?xml version="1.0" encoding="utf-8"?>
<!-- Generator: Adobe Illustrator 18.1.1, SVG Export Plug-In . SVG Version: 6.00 Build 0)  -->
<!DOCTYPE svg PUBLIC "-//W3C//DTD SVG 1.1//EN" "http://www.w3.org/Graphics/SVG/1.1/DTD/svg11.dtd">
<svg version="1.1" id="Ebene_1" xmlns="http://www.w3.org/2000/svg" xmlns:xlink="http://www.w3.org/1999/xlink" x="0px" y="0px"
	 width="178px" height="146px" viewBox="0 0 89 73" enable-background="new 0 0 89 73" xml:space="preserve">
<path fill="#3C4250" d="M85.4,3.6V0H3.6v3.6H0V64h89V3.6H85.4z M7.1,7.1V3.6h35.6v56.9H7.1V7.1z M49.8,7.1v14.2l7.1-3.6l7.1,3.6V3.6
	h17.8v56.9H46.3V3.6h3.6V7.1z M38.5,51h-28v-3h28V51z M38.5,44h-28v-3h28V44z M38.5,37h-28v-3h28V37z M38.5,30h-28v-3h28V30z
	 M38.5,23h-13v-3h13V23z M20.5,23l-1-2h-4.9l-1,2h-3.1l4.7-14h3.5l4.8,14H20.5z M17.1,11.9c-0.2,0.8-0.8,3.1-1.7,6.1h3.5L17.1,11.9z
	"/>
</svg>
