<?xml version="1.0" encoding="utf-8"?>
<!-- Generator: Adobe Illustrator 18.1.1, SVG Export Plug-In . SVG Version: 6.00 Build 0)  -->
<!DOCTYPE svg PUBLIC "-//W3C//DTD SVG 1.1//EN" "http://www.w3.org/Graphics/SVG/1.1/DTD/svg11.dtd">
<svg version="1.1" id="Ebene_1" xmlns="http://www.w3.org/2000/svg" xmlns:xlink="http://www.w3.org/1999/xlink" x="0px" y="0px"
	 width="178px" height="146px" viewBox="0 0 89 73" enable-background="new 0 0 89 73" xml:space="preserve">
<path fill="#3C4250" d="M27.5,0C12.3,0,0,12.3,0,27.5C0,42.7,12.3,55,27.5,55C42.7,55,55,42.7,55,27.5C55,12.3,42.7,0,27.5,0z
	 M27.5,21.6c3.2,0,5.9,2.6,5.9,5.9c0,3.2-2.6,5.9-5.9,5.9s-5.9-2.6-5.9-5.9C21.6,24.3,24.3,21.6,27.5,21.6z M17.6,6.6l5.5,12.2
	c-1.9,1-3.4,2.5-4.3,4.4L6.6,17.6C8.9,13.1,13.1,8.9,17.6,6.6z M37.4,48.4l-5.6-12.2c1.9-1,3.4-2.4,4.4-4.3l12.2,5.5
	C46.3,42.8,42.1,47,37.4,48.4z"/>
</svg>
