<?xml version="1.0" encoding="utf-8"?>
<!-- Generator: Adobe Illustrator 18.1.1, SVG Export Plug-In . SVG Version: 6.00 Build 0)  -->
<!DOCTYPE svg PUBLIC "-//W3C//DTD SVG 1.1//EN" "http://www.w3.org/Graphics/SVG/1.1/DTD/svg11.dtd">
<svg version="1.1" id="Ebene_1" xmlns="http://www.w3.org/2000/svg" xmlns:xlink="http://www.w3.org/1999/xlink" x="0px" y="0px"
	 width="178px" height="146px" viewBox="0 0 89 73" enable-background="new 0 0 89 73" xml:space="preserve">
<path fill="#3C4250" d="M64.3,16.1v5.4H59v-2.7h-2.7v2.7h-5.4v-8.1h-2.7v8.1h-2.7V5.4h-2.7v16.1h-5.4v-5.4h-2.7v5.4h-5.4v-8.1h-2.7
	v8.1h-5.4v-5.4h-2.7v5.4h-5.4V0h-2.7v21.5h-8v-2.7H0v8.1h2.7v-2.7h8V43h2.7V24.2h5.4v5.4h2.7v-5.4h5.4v8.1h2.7v-8.1h5.4v5.4h2.7
	v-5.4h5.4v16.1h2.7V24.2h2.7v8.1h2.7v-8.1h5.4v2.7H59v-2.7h5.4v5.4H67V16.1H64.3z"/>
</svg>
