<?xml version="1.0" encoding="utf-8"?>
<!-- Generator: Adobe Illustrator 18.1.1, SVG Export Plug-In . SVG Version: 6.00 Build 0)  -->
<!DOCTYPE svg PUBLIC "-//W3C//DTD SVG 1.1//EN" "http://www.w3.org/Graphics/SVG/1.1/DTD/svg11.dtd">
<svg version="1.1" id="Ebene_1" xmlns="http://www.w3.org/2000/svg" xmlns:xlink="http://www.w3.org/1999/xlink" x="0px" y="0px"
	 width="178px" height="146px" viewBox="0 0 89 73" enable-background="new 0 0 89 73" xml:space="preserve">
<path fill="#3C4250" d="M89,0H0v64h89V0z M3,3h40v58H3V3z M86,3v58H46V3H86z M19.8,47c0.1,1,0.3,1.6,1.1,2.4s1.8,1.4,3.3,1.4
	c1.5,0,3.2-1.1,3.6-3c0.3-1.9-0.5-5.6-0.6-6.8c1.6-0.8,3.1-3.3,3.3-4.9c0.3-1.8-0.3-3.9-1.3-5.4c-0.9-1.2-2.3-2-3.8-2
	c-0.2,0-0.3,0-0.5,0c-0.1-0.3-1.3-4.4-1.3-4.4s1.1-0.7,3.1-3.3c2-2.6,2.4-7,1-10.1c-0.4-1.1-1.6-2.1-2.8-2.1c-0.9,0-1.6,0.8-2.1,1.8
	c-1.5,2.8-2.3,7.9-1.6,11.5c0,0,0.1,0.9-0.6,1.9c-1.5,1.8-3.1,3.8-3.7,6.4c-0.7,2.9-0.2,5.7,1.5,7.8c1.8,2.5,4.4,3.6,7.7,3.3
	c0.6,3.1,0.8,5.9,0.1,6.9c-0.6,0.9-1.7,1.4-2.5,0.6c1.1-0.4,1.8-1.3,1.8-2.4c0-1.4-1.2-2.6-2.7-2.6c-1.4,0-2.7,1-2.8,2.3
	C19.9,46.3,19.8,46.7,19.8,47z M24.3,12.6c0.2-0.3,0.4-0.5,0.7-0.5c0.2,0,0.5,0.2,0.6,0.3c0.6,0.3,0.7,1,0.7,2
	c-0.2,2.5-1.9,4.6-2.9,5.5C23,17.7,23.1,14.3,24.3,12.6z M20,38.3c-0.9-1-1.4-2.8-1.4-4c0-0.2,0-0.3,0-0.5c-0.1-2,1.1-4.5,1.8-5.4
	c0.7-0.9,1.1-1.3,2-1.9c0.5,1.1,0.5,1.1,0.9,2.3c-2.1,1.5-2.8,3.9-2.7,6c0,1,0.3,1.6,0.7,2.3c0.1,0.2,0.3,0.3,0.4,0.3
	c0.2,0,0.4-0.2,0.4-0.3c0.1-0.2,0.1-0.5,0-0.7c-0.2-0.2-0.2-0.3-0.2-0.7c-0.1-1.5,0.7-2.6,1.8-3.1c0.2,1,1.2,6.1,1.3,7.2
	C23.4,40.6,21.4,39.9,20,38.3z M26.7,39.3c-0.3-1.1-0.5-2.5-0.7-3.9c-0.1-1-0.3-2.1-0.6-3.1c1.9,0,2.5,1.8,2.7,2.5
	C28.5,36.5,28,38.3,26.7,39.3z"/>
</svg>
