<?xml version="1.0" encoding="utf-8"?>
<!-- Generator: Adobe Illustrator 18.1.1, SVG Export Plug-In . SVG Version: 6.00 Build 0)  -->
<!DOCTYPE svg PUBLIC "-//W3C//DTD SVG 1.1//EN" "http://www.w3.org/Graphics/SVG/1.1/DTD/svg11.dtd">
<svg version="1.1" id="Ebene_1" xmlns="http://www.w3.org/2000/svg" xmlns:xlink="http://www.w3.org/1999/xlink" x="0px" y="0px"
	 width="178px" height="146px" viewBox="0 0 89 73" enable-background="new 0 0 89 73" xml:space="preserve">
<path fill="#3C4250" d="M39,51H9v-3h30V51z M39,41H9v3h30V41z M39,34H9v3h30V34z M39,27H9v3h30V27z M39,20H24v3h15V20z M22.1,23
	L17.3,9h-3.5L9.1,23h3.1l1-2H18l1,2H22.1z M17.4,18h-3.5c1-3,1.5-5.3,1.7-6.1L17.4,18z M48,3v58c0,1.7-1.3,3-3,3H3c-1.7,0-3-1.3-3-3
	V3c0-1.7,1.3-3,3-3h42C46.7,0,48,1.3,48,3z M26.8,59.9c0-1.1-0.9-2-2-2s-2,0.9-2,2c0,1.1,0.9,2,2,2S26.8,61,26.8,59.9z M45,14H34V3
	H3v53h42V14z M45,11V3h-8L45,11z"/>
</svg>
