<?xml version="1.0" encoding="UTF-8" standalone="no"?>
<svg
   xmlns:dc="http://purl.org/dc/elements/1.1/"
   xmlns:cc="http://creativecommons.org/ns#"
   xmlns:rdf="http://www.w3.org/1999/02/22-rdf-syntax-ns#"
   xmlns:svg="http://www.w3.org/2000/svg"
   xmlns="http://www.w3.org/2000/svg"
   id="svg2"
   xml:space="preserve"
   enable-background="new 0 0 500 260"
   viewBox="0 0 388.97299 163.11798"
   height="163.11798"
   width="388.97299"
   y="0px"
   x="0px"
   version="1.1"><metadata
     id="metadata99"><rdf:RDF><cc:Work
         rdf:about=""><dc:format>image/svg+xml</dc:format><dc:type
           rdf:resource="http://purl.org/dc/dcmitype/StillImage" /><dc:title></dc:title></cc:Work></rdf:RDF></metadata><defs
     id="defs97" /><g
     transform="translate(-54.999,-55.000023)"
     id="background" /><g
     transform="translate(-54.999,-55.000023)"
     id="logo"><circle
       style="fill:#ffffff"
       id="circle6"
       r="5.4749999"
       cy="111.484"
       cx="300.36499" /><circle
       style="fill:#ffffff"
       id="circle8"
       r="5.474"
       cy="111.312"
       cx="161.504" /><path
       style="fill:#ffffff"
       id="path10"
       d="m 55.771,166.594 c 3.759,2.218 7.808,3.182 11.567,3.182 4.338,0 8,-1.831 8,-6.748 0,-9.929 -19.857,-8.29 -19.857,-23.231 0,-9.543 8.097,-13.494 15.712,-13.494 3.375,0 7.23,0.481 10.219,1.734 l -0.579,7.229 c -2.796,-1.445 -5.88,-2.217 -9.254,-2.217 -3.566,0 -7.519,1.639 -7.519,6.266 0,10.314 19.857,8.002 19.857,22.846 0,9.736 -7.422,14.363 -16.194,14.363 -4.531,0 -8.772,-0.675 -12.724,-2.12 l 0.772,-7.81 z" /><path
       style="fill:#ffffff"
       id="path12"
       d="m 100.4,175.463 -12.338,-48.198 8.869,0 8.579,40.004 8.869,-40.004 9.639,0 8.869,40.004 8.675,-40.004 8.193,0 -12.338,48.198 -9.639,0 -8.772,-39.426 -8.964,39.426 -9.642,0 z" /><path
       style="fill:#ffffff"
       id="path14"
       d="m 157.271,175.463 0,-48.198 8.29,0 0,48.198 -8.29,0 z" /><path
       style="fill:#ffffff"
       id="path16"
       d="m 176.164,166.594 c 3.759,2.218 7.808,3.182 11.567,3.182 4.338,0 8,-1.831 8,-6.748 0,-9.929 -19.857,-8.29 -19.857,-23.231 0,-9.543 8.097,-13.494 15.712,-13.494 3.374,0 7.23,0.481 10.218,1.734 l -0.579,7.229 c -2.795,-1.445 -5.88,-2.217 -9.254,-2.217 -3.566,0 -7.519,1.639 -7.519,6.266 0,10.314 19.857,8.002 19.857,22.846 0,9.736 -7.422,14.363 -16.194,14.363 -4.531,0 -8.772,-0.675 -12.724,-2.12 l 0.773,-7.81 z" /><path
       style="fill:#ffffff"
       id="path18"
       d="m 211.539,166.594 c 3.759,2.218 7.808,3.182 11.567,3.182 4.338,0 8,-1.831 8,-6.748 0,-9.929 -19.857,-8.29 -19.857,-23.231 0,-9.543 8.097,-13.494 15.712,-13.494 3.375,0 7.23,0.481 10.219,1.734 l -0.579,7.229 c -2.796,-1.445 -5.88,-2.217 -9.254,-2.217 -3.566,0 -7.519,1.639 -7.519,6.266 0,10.314 19.857,8.002 19.857,22.846 0,9.736 -7.422,14.363 -16.194,14.363 -4.531,0 -8.772,-0.675 -12.725,-2.12 l 0.773,-7.81 z" /><path
       style="fill:#ffffff"
       id="path20"
       d="m 296.17,175.463 0,-48.198 8.289,0 0,48.198 -8.289,0 z" /><path
       style="fill:#ffffff"
       id="path22"
       d="m 269.664,126.302 c -5.881,0 -9.641,3.18 -12.051,7.712 l 0,-28.051 -8.289,0 0,46.699 c 0,10.057 2.484,23.861 17.976,23.861 15.529,0 18.461,-15.328 18.461,-25.352 10e-4,-10.411 -2.988,-24.869 -16.097,-24.869 z m -2.314,43.473 c -8.457,0 -9.928,-12.27 -9.928,-18.604 0,-7.037 1.541,-18.123 9.928,-18.123 8.482,0 9.543,11.857 9.543,18.123 0,6.073 -1.35,18.604 -9.543,18.604 z" /><path
       style="fill:#ffffff"
       id="path24"
       d="m 337.812,126.302 c -5.881,0 -9.641,3.18 -12.051,7.712 l 0,-28.051 -8.289,0 0,46.699 c 0,10.059 2.484,23.861 17.977,23.861 15.529,0 18.461,-15.328 18.461,-25.352 0,-10.411 -2.988,-24.869 -16.098,-24.869 z m -2.314,43.473 c -8.457,0 -9.928,-12.27 -9.928,-18.604 0,-7.037 1.541,-18.123 9.928,-18.123 8.482,0 9.543,11.857 9.543,18.123 0,6.073 -1.35,18.604 -9.543,18.604 z" /><path
       style="fill:#ffec00"
       id="path26"
       d="m 363.088,87.259 c 0.006,-0.067 0.01,-0.134 0.016,-0.2 -0.006,0.066 -0.01,0.132 -0.016,0.2 z" /><path
       style="fill:#ffec00"
       id="path28"
       d="m 363.24,85.887 c 0.027,-0.205 0.049,-0.41 0.078,-0.613 -0.029,0.203 -0.052,0.408 -0.078,0.613 z" /><path
       style="fill:#ffec00"
       id="path30"
       d="m 385.207,123.184 c -0.008,-0.003 -0.016,-0.006 -0.025,-0.01 0.009,0.004 0.017,0.007 0.025,0.01 z" /><path
       style="fill:#ffec00"
       id="path32"
       d="m 398.545,125.691 c -0.049,10e-4 -0.1,10e-4 -0.148,10e-4 0.048,0 0.099,0 0.148,-10e-4 z" /><path
       style="fill:#ffec00"
       id="path34"
       d="m 401.936,125.509 c -0.121,0.013 -0.244,0.019 -0.365,0.03 0.12,-0.01 0.243,-0.018 0.365,-0.03 z" /><path
       style="fill:#ffec00"
       id="path36"
       d="m 400.27,125.639 c -0.096,0.005 -0.191,0.008 -0.287,0.013 0.095,-0.006 0.191,-0.008 0.287,-0.013 z" /><path
       style="fill:#ffec00"
       id="path38"
       d="m 383.654,122.522 c -0.016,-0.007 -0.031,-0.015 -0.047,-0.021 0.016,0.007 0.032,0.015 0.047,0.021 z" /><path
       style="fill:#ffec00"
       id="path40"
       d="m 392.535,71.488 c 1.746,0.422 3.416,0.997 5.006,1.694 4.732,-3.14 10.408,-4.973 16.512,-4.973 5.215,0 10.115,1.337 14.387,3.683 -0.592,-0.962 -1.229,-1.906 -1.922,-2.826 -11.756,-15.588 -33.916,-18.691 -49.508,-6.939 -7.566,5.706 -12.182,13.869 -13.592,22.541 0.322,-1.944 0.797,-3.857 1.43,-5.715 7.119,-6.788 17.422,-9.947 27.687,-7.465 z" /><path
       style="fill:#13235b"
       id="path42"
       d="m 428.439,71.893 c 9.414,15.344 5.803,35.619 -8.861,46.676 -5.324,4.014 -11.414,6.292 -17.596,6.934 0,0.001 -0.002,0.001 -0.002,0.001 3.693,1.632 7.775,2.546 12.072,2.546 16.521,0 29.92,-13.398 29.92,-29.918 0.001,-11.311 -6.277,-21.152 -15.533,-26.239 z" /><path
       style="fill:#caba9c"
       id="path44"
       d="m 397.541,73.183 c 13.033,5.712 20.506,20.104 17.045,34.419 -1.852,7.653 -6.51,13.877 -12.604,17.9 6.182,-0.642 12.271,-2.92 17.596,-6.934 14.664,-11.057 18.275,-31.332 8.861,-46.676 -4.271,-2.346 -9.172,-3.683 -14.387,-3.683 -6.103,10e-4 -11.779,1.834 -16.511,4.974 z" /><path
       style="fill:#ffffff"
       id="path46"
       d="m 401.57,125.539 c -0.434,0.04 -0.867,0.075 -1.301,0.1 0.434,-0.025 0.868,-0.059 1.301,-0.1 z" /><path
       style="fill:#ffffff"
       id="path48"
       d="m 399.982,125.651 c -0.479,0.022 -0.957,0.038 -1.438,0.04 0.481,-0.003 0.96,-0.016 1.438,-0.04 z" /><path
       style="fill:#ffffff"
       id="path50"
       d="m 401.936,125.509 c 0.016,-0.002 0.029,-0.003 0.045,-0.005 l 0,0 0,-0.001 c -0.016,0.001 -0.03,0.004 -0.045,0.006 z" /><path
       style="fill:#ffffff"
       id="path52"
       d="m 398.396,125.692 c -4.504,0.009 -8.988,-0.838 -13.189,-2.509 4.164,1.657 8.641,2.524 13.189,2.509 z" /><path
       style="fill:#ffffff"
       id="path54"
       d="m 363.318,85.273 c 0.029,-0.203 0.068,-0.404 0.1,-0.605 -0.033,0.201 -0.068,0.402 -0.1,0.605 z" /><path
       style="fill:#ffffff"
       id="path56"
       d="m 363.104,87.059 c 0.037,-0.392 0.088,-0.781 0.137,-1.172 -0.052,0.389 -0.098,0.78 -0.137,1.172 z" /><path
       style="fill:#ffffff"
       id="path58"
       d="m 370.078,111.629 c -5.482,-7.269 -7.729,-15.966 -6.99,-24.37 -0.516,5.673 0.324,11.546 2.752,17.144 3.619,8.357 10.084,14.6 17.768,18.1 -5.18,-2.362 -9.862,-6.011 -13.53,-10.874 z" /><path
       style="fill:#ffffff"
       id="path60"
       d="m 385.182,123.174 c -0.514,-0.205 -1.021,-0.422 -1.527,-0.651 0.503,0.229 1.013,0.446 1.527,0.651 z" /><polygon
       style="fill:#ffffff"
       id="polygon62"
       points="401.98,125.503 401.98,125.504 401.982,125.502 " /><path
       style="fill:#ffffff"
       id="path64"
       d="m 397.541,73.183 c -1.59,-0.697 -3.26,-1.272 -5.006,-1.694 -10.266,-2.482 -20.568,0.677 -27.688,7.465 -0.633,1.857 -1.107,3.771 -1.43,5.715 -0.031,0.201 -0.07,0.402 -0.1,0.605 -0.03,0.203 -0.051,0.408 -0.078,0.613 -0.049,0.391 -0.1,0.78 -0.137,1.172 -0.006,0.066 -0.01,0.133 -0.016,0.2 -0.738,8.404 1.508,17.102 6.99,24.37 3.668,4.863 8.35,8.512 13.529,10.873 0.016,0.006 0.031,0.014 0.047,0.021 0.506,0.229 1.014,0.446 1.527,0.651 0.01,0.004 0.018,0.007 0.025,0.01 4.201,1.671 8.686,2.518 13.189,2.509 0.049,0 0.1,0 0.148,-0.001 0.48,-0.002 0.959,-0.018 1.438,-0.04 0.096,-0.005 0.191,-0.008 0.287,-0.013 0.434,-0.024 0.867,-0.06 1.301,-0.1 0.121,-0.012 0.244,-0.018 0.365,-0.03 0.016,-0.002 0.029,-0.005 0.045,-0.006 0,0 0,0 0.002,-0.001 6.094,-4.023 10.752,-10.247 12.604,-17.9 3.464,-14.315 -4.009,-28.707 -17.042,-34.419 z" /><g
       style="display:none"
       display="none"
       id="beta"><path
         style="display:inline;fill:#ffffff"
         id="path67"
         d="m 295.449,215.959 0,-28.637 1.984,0 0,11.598 c 0.953,-1.629 2.344,-3.099 4.688,-3.099 5.283,0 6.553,5.998 6.553,10.208 0,4.131 -1.35,10.366 -6.553,10.366 -2.344,0 -3.773,-1.35 -4.727,-3.098 l -0.08,2.661 -1.865,0 z m 6.553,-1.51 c 3.893,0 4.488,-5.561 4.488,-8.42 0,-2.979 -0.477,-8.262 -4.488,-8.262 -3.932,0 -4.688,4.886 -4.688,8.262 0,1.708 0.16,3.813 0.795,5.521 0.635,1.629 1.829,2.899 3.893,2.899 z"
         display="inline" /><path
         style="display:inline;fill:#ffffff"
         id="path69"
         d="m 314.275,206.427 c 0,3.812 1.43,8.022 5.998,8.022 1.311,0 2.781,-0.317 3.893,-1.072 l 0.158,2.146 c -1.27,0.596 -2.621,0.873 -4.09,0.873 -6.156,0 -8.182,-5.282 -8.182,-10.366 0,-4.607 1.906,-10.208 7.029,-10.208 5.164,0 5.918,5.322 5.918,10.089 l 0,0.517 -10.724,0 z m 8.58,-1.827 c -0.119,-3.337 -0.676,-6.911 -3.893,-6.911 -3.297,0 -4.488,4.051 -4.688,6.911 l 8.581,0 z"
         display="inline" /><path
         style="display:inline;fill:#ffffff"
         id="path71"
         d="m 336.043,215.959 c -0.875,0.278 -1.709,0.437 -2.543,0.437 -2.582,0 -3.455,-1.827 -3.455,-4.091 l 0,-14.259 -2.859,0 0,-1.827 2.859,0 0,-4.567 1.986,-0.715 0,5.282 3.932,0 0,1.827 -3.932,0 0,13.465 c 0,1.509 0.078,2.938 2.025,2.938 0.635,0 1.15,-0.317 1.748,-0.635 l 0.239,2.145 z"
         display="inline" /><path
         style="display:inline;fill:#ffffff"
         id="path73"
         d="m 349.189,215.959 -0.16,-2.939 c -0.834,1.867 -2.779,3.376 -5.322,3.376 -3.297,0 -5.52,-2.025 -5.52,-5.838 0,-5.084 5.043,-6.396 9.293,-6.396 l 1.43,0 0,-1.469 c 0,-2.979 -0.834,-4.926 -4.131,-4.926 -1.549,0 -3.375,0.557 -4.646,1.351 l -0.238,-2.065 c 1.549,-0.794 3.297,-1.231 5.004,-1.231 4.25,0 5.998,2.423 5.998,6.396 l 0,9.452 c 0,1.431 0.119,2.86 0.238,4.29 l -1.946,0 z m -1.39,-9.97 c -3.455,0 -7.428,0.636 -7.428,4.688 0,2.264 1.271,3.853 3.455,3.853 3.338,0 5.084,-2.899 5.084,-6.315 l 0,-2.225 -1.111,0 z"
         display="inline" /></g><g
       id="g75"
       transform="translate(2,0)"><path
         style="fill:#ffffff"
         id="path77"
         d="m 185.839,191.754 c 1.482,-0.312 3.822,-0.547 6.202,-0.547 3.393,0 5.577,0.586 7.215,1.911 1.365,1.015 2.184,2.574 2.184,4.642 0,2.535 -1.677,4.758 -4.446,5.772 l 0,0.078 c 2.496,0.624 5.421,2.69 5.421,6.591 0,2.262 -0.897,3.979 -2.223,5.266 -1.833,1.677 -4.797,2.457 -9.087,2.457 -2.34,0 -4.134,-0.156 -5.266,-0.312 l 0,-25.858 z m 3.394,10.764 3.081,0 c 3.588,0 5.694,-1.872 5.694,-4.407 0,-3.081 -2.34,-4.29 -5.772,-4.29 -1.56,0 -2.457,0.117 -3.003,0.234 l 0,8.463 z m 0,12.597 c 0.663,0.117 1.638,0.156 2.847,0.156 3.51,0 6.748,-1.287 6.748,-5.109 0,-3.588 -3.081,-5.07 -6.786,-5.07 l -2.808,0 0,10.023 z" /><path
         style="fill:#ffffff"
         id="path79"
         d="m 217.312,217.689 -0.273,-2.379 -0.117,0 c -1.053,1.481 -3.082,2.808 -5.772,2.808 -3.822,0 -5.772,-2.69 -5.772,-5.421 0,-4.563 4.056,-7.06 11.349,-7.021 l 0,-0.39 c 0,-1.561 -0.429,-4.368 -4.29,-4.368 -1.755,0 -3.588,0.546 -4.914,1.404 l -0.78,-2.263 c 1.56,-1.014 3.822,-1.677 6.201,-1.677 5.772,0 7.176,3.939 7.176,7.723 l 0,7.059 c 0,1.639 0.078,3.237 0.312,4.524 l -3.12,0 z m -0.506,-9.633 c -3.744,-0.077 -7.995,0.585 -7.995,4.252 0,2.223 1.482,3.275 3.237,3.275 2.457,0 4.017,-1.56 4.563,-3.159 0.117,-0.351 0.195,-0.74 0.195,-1.092 l 0,-3.276 z" /><path
         style="fill:#ffffff"
         id="path81"
         d="m 225.19,214.18 c 1.014,0.663 2.808,1.364 4.524,1.364 2.496,0 3.666,-1.248 3.666,-2.808 0,-1.638 -0.975,-2.535 -3.51,-3.471 -3.393,-1.21 -4.992,-3.082 -4.992,-5.344 0,-3.042 2.458,-5.538 6.513,-5.538 1.911,0 3.588,0.546 4.642,1.17 l -0.858,2.496 c -0.741,-0.468 -2.106,-1.092 -3.861,-1.092 -2.028,0 -3.159,1.17 -3.159,2.574 0,1.56 1.131,2.262 3.588,3.198 3.276,1.248 4.954,2.886 4.954,5.693 0,3.315 -2.574,5.655 -7.06,5.655 -2.067,0 -3.978,-0.507 -5.304,-1.287 l 0.857,-2.61 z" /><path
         style="fill:#ffffff"
         id="path83"
         d="m 243.013,208.875 c 0.078,4.642 3.042,6.553 6.474,6.553 2.457,0 3.938,-0.43 5.226,-0.976 l 0.586,2.457 c -1.209,0.546 -3.276,1.17 -6.28,1.17 -5.811,0 -9.282,-3.821 -9.282,-9.516 0,-5.695 3.354,-10.18 8.854,-10.18 6.162,0 7.8,5.421 7.8,8.893 0,0.702 -0.078,1.248 -0.117,1.599 l -13.261,0 z m 10.063,-2.457 c 0.038,-2.184 -0.898,-5.577 -4.759,-5.577 -3.471,0 -4.992,3.198 -5.265,5.577 l 10.024,0 z" /><path
         style="fill:#ffffff"
         id="path85"
         d="m 260.641,189.998 3.432,0 0,27.691 -3.432,0 0,-27.691 z" /><path
         style="fill:#ffffff"
         id="path87"
         d="m 278.229,191.754 c 1.482,-0.312 3.822,-0.547 6.201,-0.547 3.394,0 5.578,0.586 7.215,1.911 1.365,1.015 2.186,2.574 2.186,4.642 0,2.535 -1.678,4.758 -4.447,5.772 l 0,0.078 c 2.496,0.624 5.422,2.69 5.422,6.591 0,2.262 -0.896,3.979 -2.223,5.266 -1.834,1.677 -4.798,2.457 -9.088,2.457 -2.34,0 -4.135,-0.156 -5.266,-0.312 l 0,-25.858 z m 3.393,10.764 3.081,0 c 3.588,0 5.693,-1.872 5.693,-4.407 0,-3.081 -2.34,-4.29 -5.771,-4.29 -1.561,0 -2.457,0.117 -3.003,0.234 l 0,8.463 z m 0,12.597 c 0.663,0.117 1.638,0.156 2.847,0.156 3.51,0 6.748,-1.287 6.748,-5.109 0,-3.588 -3.082,-5.07 -6.787,-5.07 l -2.808,0 0,10.023 z" /><path
         style="fill:#ffffff"
         id="path89"
         d="m 301.316,208.875 c 0.078,4.642 3.043,6.553 6.475,6.553 2.457,0 3.939,-0.43 5.227,-0.976 l 0.586,2.457 c -1.209,0.546 -3.277,1.17 -6.279,1.17 -5.812,0 -9.283,-3.821 -9.283,-9.516 0,-5.695 3.354,-10.18 8.854,-10.18 6.162,0 7.801,5.421 7.801,8.893 0,0.702 -0.078,1.248 -0.117,1.599 l -13.264,0 z m 10.063,-2.457 c 0.039,-2.184 -0.896,-5.577 -4.758,-5.577 -3.471,0 -4.992,3.198 -5.266,5.577 l 10.024,0 z" /><path
         style="fill:#ffffff"
         id="path91"
         d="m 318.945,204.702 c 0,-2.224 -0.039,-4.135 -0.156,-5.89 l 3.004,0 0.117,3.705 0.154,0 c 0.859,-2.535 2.926,-4.134 5.227,-4.134 0.391,0 0.664,0.039 0.975,0.117 l 0,3.237 c -0.35,-0.078 -0.701,-0.117 -1.17,-0.117 -2.418,0 -4.133,1.833 -4.602,4.407 -0.078,0.468 -0.156,1.014 -0.156,1.599 l 0,10.062 -3.393,0 0,-12.986 z" /><path
         style="fill:#ffffff"
         id="path93"
         d="m 331.854,203.922 c 0,-1.95 -0.039,-3.549 -0.156,-5.109 l 3.043,0 0.193,3.12 0.078,0 c 0.938,-1.794 3.121,-3.549 6.24,-3.549 2.613,0 6.67,1.56 6.67,8.034 l 0,11.271 -3.432,0 0,-10.882 c 0,-3.042 -1.131,-5.577 -4.369,-5.577 -2.262,0 -4.016,1.6 -4.602,3.511 -0.156,0.429 -0.234,1.014 -0.234,1.599 l 0,11.35 -3.432,0 0,-13.768 z" /></g></g></svg>