<?xml version="1.0" encoding="UTF-8" standalone="no"?>
<svg
   xmlns:dc="http://purl.org/dc/elements/1.1/"
   xmlns:cc="http://creativecommons.org/ns#"
   xmlns:rdf="http://www.w3.org/1999/02/22-rdf-syntax-ns#"
   xmlns:svg="http://www.w3.org/2000/svg"
   xmlns="http://www.w3.org/2000/svg"
   xmlns:xlink="http://www.w3.org/1999/xlink"
   xml:space="preserve"
   enable-background="new 0 0 500 150"
   viewBox="0 0 388.97198 121.52146"
   height="121.52146"
   width="388.97198"
   y="0px"
   x="0px"
   id="Ebene_1"
   version="1.1"><metadata
     id="metadata79"><rdf:RDF><cc:Work
         rdf:about=""><dc:format>image/svg+xml</dc:format><dc:type
           rdf:resource="http://purl.org/dc/dcmitype/StillImage" /><dc:title></dc:title></cc:Work></rdf:RDF></metadata><defs
     id="defs77" /><g
     transform="translate(-59.79,-4.3615414)"
     id="g3"><g
       id="g5"><defs
         id="defs7"><polygon
           points="-22,325 -22,-85 -22,-85 573.273,-85 573.273,325 "
           id="SVGID_1_" /></defs><clipPath
         id="SVGID_2_"><use
           height="100%"
           width="100%"
           y="0"
           x="0"
           style="overflow:visible"
           id="use11"
           overflow="visible"
           xlink:href="#SVGID_1_" /></clipPath><path
         style="fill:#ffffff"
         id="path15"
         d="m 310.63,60.843 c 0,3.024 -2.45,5.478 -5.473,5.478 -3.024,0 -5.475,-2.453 -5.475,-5.478 0,-3.022 2.45,-5.473 5.475,-5.473 3.023,0 5.473,2.45 5.473,5.473 l 0,0 z"
         clip-path="url(#SVGID_2_)" /><path
         style="fill:#ffffff"
         id="path17"
         d="m 171.77,60.67 c 0,3.023 -2.453,5.477 -5.477,5.477 -3.023,0 -5.473,-2.453 -5.473,-5.477 0,-3.024 2.45,-5.473 5.473,-5.473 3.024,0 5.477,2.449 5.477,5.473 l 0,0 z"
         clip-path="url(#SVGID_2_)" /><path
         style="fill:#ffffff"
         id="path19"
         d="m 60.563,115.953 c 3.757,2.217 7.807,3.184 11.567,3.184 4.337,0 8,-1.834 8,-6.75 0,-9.927 -19.857,-8.289 -19.857,-23.229 0,-9.544 8.097,-13.497 15.71,-13.497 3.377,0 7.23,0.482 10.22,1.736 l -0.58,7.23 C 82.83,83.18 79.747,82.41 76.37,82.41 c -3.567,0 -7.517,1.637 -7.517,6.263 0,10.317 19.857,8.004 19.857,22.847 0,9.737 -7.423,14.363 -16.197,14.363 -4.53,0 -8.77,-0.673 -12.723,-2.12 l 0.773,-7.81 0,0 z"
         clip-path="url(#SVGID_2_)" /><polygon
         style="fill:#ffffff"
         id="polygon21"
         points="110.3,116.63 119.17,76.623 128.81,76.623 137.677,116.63 146.35,76.623 154.543,76.623 142.207,124.823 132.567,124.823 123.797,85.396 114.83,124.823 105.19,124.823 105.19,124.823 92.853,76.623 101.72,76.623 "
         clip-path="url(#SVGID_2_)" /><polygon
         style="fill:#ffffff"
         id="polygon23"
         points="170.353,124.823 162.063,124.823 162.063,124.823 162.063,76.623 170.353,76.623 "
         clip-path="url(#SVGID_2_)" /><path
         style="fill:#ffffff"
         id="path25"
         d="m 180.953,115.953 c 3.76,2.217 7.81,3.184 11.567,3.184 4.34,0 8,-1.834 8,-6.75 0,-9.927 -19.853,-8.289 -19.853,-23.229 0,-9.544 8.096,-13.497 15.71,-13.497 3.373,0 7.23,0.482 10.22,1.736 l -0.58,7.23 c -2.797,-1.447 -5.88,-2.217 -9.254,-2.217 -3.566,0 -7.52,1.637 -7.52,6.263 0,10.317 19.857,8.004 19.857,22.847 0,9.737 -7.42,14.363 -16.193,14.363 -4.53,0 -8.77,-0.673 -12.724,-2.12 l 0.77,-7.81 0,0 z"
         clip-path="url(#SVGID_2_)" /><path
         style="fill:#ffffff"
         id="path27"
         d="m 216.33,115.953 c 3.76,2.217 7.807,3.184 11.567,3.184 4.335,0 8,-1.834 8,-6.75 0,-9.927 -19.856,-8.289 -19.856,-23.229 0,-9.544 8.097,-13.497 15.713,-13.497 3.374,0 7.229,0.482 10.218,1.736 l -0.578,7.23 c -2.795,-1.447 -5.879,-2.217 -9.252,-2.217 -3.57,0 -7.521,1.637 -7.521,6.263 0,10.317 19.856,8.004 19.856,22.847 0,9.737 -7.424,14.363 -16.193,14.363 -4.533,0 -8.773,-0.673 -12.723,-2.12 l 0.769,-7.81 0,0 z"
         clip-path="url(#SVGID_2_)" /><polygon
         style="fill:#ffffff"
         id="polygon29"
         points="309.25,124.823 300.96,124.823 300.96,124.823 300.96,76.623 309.25,76.623 "
         clip-path="url(#SVGID_2_)" /><path
         style="fill:#ffffff"
         id="path31"
         d="m 272.141,119.137 c -8.457,0 -9.928,-12.27 -9.928,-18.607 0,-7.036 1.54,-18.119 9.928,-18.119 8.482,0 9.542,11.857 9.542,18.119 0,6.074 -1.35,18.607 -9.542,18.607 l 0,0 z m 2.312,-43.477 c -5.88,0 -9.641,3.18 -12.051,7.713 l 0,-28.051 -8.285,0 0,46.697 c 0,10.061 2.482,23.863 17.976,23.863 15.527,0 18.46,-15.326 18.46,-25.354 0,-10.408 -2.991,-24.868 -16.1,-24.868 l 0,0 z"
         clip-path="url(#SVGID_2_)" /><path
         style="fill:#ffffff"
         id="path33"
         d="m 340.29,119.137 c -8.457,0 -9.93,-12.27 -9.93,-18.607 0,-7.036 1.543,-18.119 9.93,-18.119 8.479,0 9.54,11.857 9.54,18.119 0,6.074 -1.347,18.607 -9.54,18.607 l 0,0 z m 2.313,-43.477 c -5.88,0 -9.64,3.18 -12.05,7.713 l 0,-28.051 -8.29,0 0,46.697 c 0,10.061 2.484,23.863 17.978,23.863 15.529,0 18.46,-15.326 18.46,-25.354 C 358.7,90.12 355.713,75.66 342.603,75.66 l 0,0 z"
         clip-path="url(#SVGID_2_)" /><path
         style="fill:#fdeb18"
         id="path35"
         d="m 367.88,36.62 c 0.003,-0.07 0.01,-0.138 0.013,-0.2 -0.003,0.062 -0.01,0.13 -0.013,0.2 l 0,0 z"
         clip-path="url(#SVGID_2_)" /><path
         style="fill:#fdeb18"
         id="path37"
         d="m 368.03,35.247 c 0.029,-0.207 0.05,-0.41 0.08,-0.614 -0.03,0.204 -0.053,0.407 -0.08,0.614 l 0,0 z"
         clip-path="url(#SVGID_2_)" /><path
         style="fill:#fdeb18"
         id="path39"
         d="m 389.997,72.543 c -0.007,-0.003 -0.017,-0.006 -0.024,-0.01 0.007,0.004 0.017,0.007 0.024,0.01 l 0,0 z"
         clip-path="url(#SVGID_2_)" /><path
         style="fill:#fdeb18"
         id="path41"
         d="m 403.337,75.05 c -0.05,0.003 -0.1,0.003 -0.15,0.003 0.05,0 0.1,0 0.15,-0.003 l 0,0 z"
         clip-path="url(#SVGID_2_)" /><path
         style="fill:#fdeb18"
         id="path43"
         d="m 406.727,74.87 c -0.124,0.01 -0.243,0.017 -0.366,0.03 0.122,-0.009 0.242,-0.02 0.366,-0.03 l 0,0 z"
         clip-path="url(#SVGID_2_)" /><path
         style="fill:#fdeb18"
         id="path45"
         d="m 405.06,75 c -0.093,0.003 -0.189,0.007 -0.286,0.01 0.096,-0.003 0.193,-0.007 0.286,-0.01 l 0,0 z"
         clip-path="url(#SVGID_2_)" /><path
         style="fill:#fdeb18"
         id="path47"
         d="m 388.443,71.883 c -0.014,-0.006 -0.03,-0.016 -0.047,-0.023 0.017,0.007 0.034,0.017 0.047,0.023 l 0,0 z"
         clip-path="url(#SVGID_2_)" /><path
         style="fill:#fdeb18"
         id="path49"
         d="m 397.327,20.85 c 1.746,0.42 3.413,0.998 5.006,1.693 4.729,-3.141 10.407,-4.973 16.51,-4.973 5.217,0 10.117,1.337 14.388,3.683 -0.591,-0.963 -1.23,-1.905 -1.921,-2.826 -11.757,-15.587 -33.917,-18.69 -49.51,-6.94 -7.566,5.707 -12.18,13.871 -13.59,22.541 0.32,-1.944 0.797,-3.857 1.43,-5.715 7.12,-6.79 17.42,-9.946 27.687,-7.463 l 0,0 z"
         clip-path="url(#SVGID_2_)" /><path
         style="fill:#2a245a"
         id="path51"
         d="m 433.23,21.253 c 9.412,15.345 5.803,35.617 -8.86,46.677 -5.323,4.01 -11.417,6.291 -17.597,6.93 0,0.004 -0.004,0.004 -0.004,0.004 3.697,1.63 7.777,2.547 12.073,2.547 16.521,0 29.92,-13.4 29.92,-29.92 C 448.763,36.18 442.487,26.34 433.23,21.253 l 0,0 z"
         clip-path="url(#SVGID_2_)" /><path
         style="fill:#cbba9f"
         id="path53"
         d="m 402.333,22.543 c 13.03,5.71 20.507,20.104 17.044,34.417 -1.85,7.653 -6.51,13.88 -12.604,17.899 6.18,-0.639 12.273,-2.92 17.597,-6.93 14.663,-11.06 18.272,-31.332 8.86,-46.677 -4.271,-2.346 -9.171,-3.683 -14.388,-3.683 -6.102,0.001 -11.78,1.833 -16.509,4.974 l 0,0 z"
         clip-path="url(#SVGID_2_)" /><path
         style="fill:#ffffff"
         id="path55"
         d="m 406.36,74.9 c -0.431,0.039 -0.867,0.072 -1.301,0.1 0.434,-0.027 0.871,-0.061 1.301,-0.1 l 0,0 z"
         clip-path="url(#SVGID_2_)" /><path
         style="fill:#ffffff"
         id="path57"
         d="m 404.773,75.01 c -0.477,0.023 -0.956,0.04 -1.437,0.04 0.481,-0.003 0.957,-0.017 1.437,-0.04 l 0,0 z"
         clip-path="url(#SVGID_2_)" /><path
         style="fill:#ffffff"
         id="path59"
         d="m 406.727,74.87 c 0.014,-0.003 0.03,-0.003 0.043,-0.007 -0.013,0 -0.03,0.004 -0.043,0.007 l 0,0 z"
         clip-path="url(#SVGID_2_)" /><path
         style="fill:#ffffff"
         id="path61"
         d="m 403.187,75.053 c -4.504,0.008 -8.986,-0.84 -13.189,-2.51 4.165,1.657 8.642,2.523 13.189,2.51 l 0,0 z"
         clip-path="url(#SVGID_2_)" /><path
         style="fill:#ffffff"
         id="path63"
         d="m 368.11,34.633 c 0.029,-0.203 0.066,-0.402 0.1,-0.605 -0.033,0.202 -0.07,0.402 -0.1,0.605 l 0,0 z"
         clip-path="url(#SVGID_2_)" /><path
         style="fill:#ffffff"
         id="path65"
         d="m 367.893,36.42 c 0.04,-0.393 0.088,-0.783 0.138,-1.173 -0.051,0.39 -0.098,0.78 -0.138,1.173 l 0,0 z"
         clip-path="url(#SVGID_2_)" /><path
         style="fill:#ffffff"
         id="path67"
         d="m 374.87,60.99 c -5.483,-7.27 -7.73,-15.967 -6.99,-24.37 -0.517,5.67 0.323,11.543 2.75,17.144 3.62,8.356 10.083,14.596 17.767,18.096 -5.177,-2.36 -9.86,-6.006 -13.527,-10.87 l 0,0 z"
         clip-path="url(#SVGID_2_)" /><path
         style="fill:#ffffff"
         id="path69"
         d="m 389.973,72.533 c -0.513,-0.203 -1.022,-0.424 -1.529,-0.65 0.506,0.226 1.016,0.447 1.529,0.65 l 0,0 z"
         clip-path="url(#SVGID_2_)" /><polygon
         style="fill:#ffffff"
         id="polygon71"
         points="406.77,74.863 406.773,74.859 406.77,74.863 "
         clip-path="url(#SVGID_2_)" /><path
         style="fill:#ffffff"
         id="path73"
         d="m 402.333,22.543 c -1.593,-0.695 -3.26,-1.273 -5.006,-1.693 -10.268,-2.482 -20.567,0.674 -27.688,7.463 -0.633,1.857 -1.109,3.771 -1.43,5.715 -0.033,0.203 -0.07,0.402 -0.1,0.605 -0.03,0.204 -0.051,0.407 -0.08,0.614 -0.05,0.39 -0.098,0.78 -0.138,1.173 -0.003,0.062 -0.01,0.13 -0.013,0.2 -0.74,8.403 1.507,17.101 6.99,24.37 3.667,4.863 8.35,8.51 13.526,10.869 0.017,0.008 0.033,0.018 0.047,0.023 0.507,0.227 1.017,0.447 1.529,0.65 0.008,0.004 0.018,0.007 0.024,0.01 4.203,1.67 8.686,2.518 13.189,2.51 0.051,0 0.101,0 0.15,-0.003 0.48,0 0.96,-0.017 1.437,-0.04 0.097,-0.003 0.193,-0.007 0.286,-0.01 0.434,-0.027 0.87,-0.061 1.301,-0.1 0.123,-0.014 0.242,-0.021 0.366,-0.03 0.014,-0.003 0.03,-0.007 0.043,-0.007 0,0 0,0 0.004,-0.004 6.094,-4.02 10.754,-10.246 12.604,-17.899 3.466,-14.313 -4.011,-28.706 -17.041,-34.416 l 0,0 z"
         clip-path="url(#SVGID_2_)" /></g></g></svg>