<?xml version="1.0" encoding="utf-8"?>
<!-- Generator: Adobe Illustrator 16.0.4, SVG Export Plug-In . SVG Version: 6.00 Build 0)  -->
<!DOCTYPE svg PUBLIC "-//W3C//DTD SVG 1.1//EN" "http://www.w3.org/Graphics/SVG/1.1/DTD/svg11.dtd">
<svg version="1.1" xmlns="http://www.w3.org/2000/svg" xmlns:xlink="http://www.w3.org/1999/xlink" x="0px" y="0px"
	 width="181.955px" height="21.076px" viewBox="0 0 181.955 21.076" enable-background="new 0 0 181.955 21.076"
	 xml:space="preserve">
<g id="Hintergrund">
</g>
<g id="Logo">
	<g>
		<path fill="#FFFFFF" d="M9.189,11.656c0,2.37-2.054,3.471-4.545,3.471C2.201,15.127,0,13.685,0,10.997h2.591
			c0,1.491,0.929,2.028,2.201,2.028c1.051,0,1.856-0.342,1.856-1.319c0-1.076-1.148-1.148-3.544-2.077
			C1.516,9.017,0.392,8.431,0.392,6.451c0-2.15,1.956-3.299,4.276-3.299c2.42,0,4.35,1.638,4.35,3.861h-2.59
			c0-1.076-0.538-1.76-1.831-1.76c-0.905,0-1.639,0.441-1.639,1.247c0,0.978,1.05,1.099,3.128,1.906
			C7.675,9.017,9.189,9.579,9.189,11.656L9.189,11.656z"/>
		<polygon fill="#FFFFFF" points="19.435,6.329 16.428,14.833 14.645,14.833 10.222,3.445 13.081,3.445 15.548,10.654 18.115,3.445 
			20.73,3.445 23.297,10.654 25.764,3.445 28.624,3.445 24.2,14.833 22.417,14.833 19.435,6.329 		"/>
		<path fill="#FFFFFF" d="M32.275,17.143c1.098,0,1.978,0.879,1.978,1.979c0,1.075-0.879,1.955-1.978,1.955
			c-1.074,0-1.954-0.88-1.954-1.955C30.321,18.021,31.201,17.143,32.275,17.143L32.275,17.143z M30.954,3.445h2.667v11.388h-2.667
			V3.445L30.954,3.445z"/>
		<path fill="#FFFFFF" d="M45.729,11.656c0,2.37-2.053,3.471-4.544,3.471c-2.444,0-4.645-1.442-4.645-4.13h2.591
			c0,1.491,0.927,2.028,2.201,2.028c1.05,0,1.854-0.342,1.854-1.319c0-1.076-1.146-1.148-3.542-2.077
			c-1.588-0.611-2.714-1.197-2.714-3.177c0-2.15,1.956-3.299,4.278-3.299c2.419,0,4.35,1.638,4.35,3.861h-2.59
			c0-1.076-0.538-1.76-1.833-1.76c-0.906,0-1.638,0.441-1.638,1.247c0,0.978,1.05,1.099,3.128,1.906
			C44.212,9.017,45.729,9.579,45.729,11.656L45.729,11.656z"/>
		<path fill="#FFFFFF" d="M56.898,11.656c0,2.37-2.053,3.471-4.544,3.471c-2.444,0-4.645-1.442-4.645-4.13H50.3
			c0,1.491,0.93,2.028,2.201,2.028c1.051,0,1.856-0.342,1.856-1.319c0-1.076-1.148-1.148-3.544-2.077
			c-1.587-0.611-2.712-1.197-2.712-3.177c0-2.15,1.956-3.299,4.276-3.299c2.42,0,4.35,1.638,4.35,3.861h-2.591
			c0-1.076-0.537-1.76-1.831-1.76c-0.905,0-1.64,0.441-1.64,1.247c0,0.978,1.051,1.099,3.128,1.906
			C55.384,9.017,56.898,9.579,56.898,11.656L56.898,11.656z"/>
		<path fill="#FFFFFF" d="M70.053,3.445v11.388h-2.665v-1.589c-0.708,1.223-2.027,1.883-3.712,1.883c-1.64,0-2.786-0.587-3.423-1.54
			c-0.561-0.855-0.732-1.809-0.732-3.372v-6.77h2.663v5.889c0,1.955,0.563,3.446,2.469,3.446c1.856,0,2.736-1.491,2.736-3.446V3.445
			H70.053L70.053,3.445z"/>
		<path fill="#FFFFFF" d="M73.629,3.445h2.663v1.588C77,3.812,78.321,3.152,80.007,3.152c1.637,0,2.785,0.587,3.42,1.54
			c0.563,0.855,0.732,1.808,0.732,3.372v6.77h-2.662v-5.89c0-1.955-0.561-3.445-2.467-3.445c-1.859,0-2.738,1.49-2.738,3.445v5.89
			h-2.663V3.445L73.629,3.445z"/>
		<path fill="#FFFFFF" d="M88.758,17.143c1.1,0,1.98,0.879,1.98,1.979c0,1.075-0.88,1.955-1.98,1.955
			c-1.075,0-1.954-0.88-1.954-1.955C86.804,18.021,87.683,17.143,88.758,17.143L88.758,17.143z M87.438,3.445h2.665v11.388h-2.665
			V3.445L87.438,3.445z"/>
		<polygon fill="#FFFFFF" points="95.1,3.445 98.227,11.021 101.402,3.445 104.264,3.445 99.107,14.833 97.324,14.833 92.242,3.445 
			95.1,3.445 		"/>
		<path fill="#FFFFFF" d="M107.371,9.945c0.025,1.638,0.832,2.958,2.984,2.958c1.514,0,2.074-0.684,2.418-1.491h2.689
			c-0.365,1.955-2.201,3.716-5.107,3.716c-3.838,0-5.693-2.885-5.693-5.988c0-3.421,2.025-5.987,5.619-5.987
			c2.957,0,5.277,2.224,5.277,5.132c0,0.391,0,0.929-0.119,1.661H107.371L107.371,9.945z M107.396,7.966h5.572
			c0-1.589-1.146-2.591-2.762-2.591C108.645,5.375,107.396,6.28,107.396,7.966L107.396,7.966z"/>
		<path fill="#FFFFFF" d="M125.684,5.914c-0.414-0.098-0.637-0.122-1.053-0.122c-2.271,0-3.518,1.295-3.518,4.13v4.912h-2.664V3.445
			h2.664v1.833c0.514-1.05,2.002-1.979,3.518-1.979c0.416,0,0.76,0.049,1.053,0.17V5.914L125.684,5.914z"/>
		<path fill="#FFFFFF" d="M135.943,11.656c0,2.37-2.053,3.471-4.545,3.471c-2.443,0-4.645-1.442-4.645-4.13h2.59
			c0,1.491,0.932,2.028,2.201,2.028c1.053,0,1.857-0.342,1.857-1.319c0-1.076-1.148-1.148-3.543-2.077
			c-1.588-0.611-2.713-1.197-2.713-3.177c0-2.15,1.957-3.299,4.275-3.299c2.42,0,4.352,1.638,4.352,3.861h-2.592
			c0-1.076-0.537-1.76-1.83-1.76c-0.906,0-1.641,0.441-1.641,1.247c0,0.978,1.051,1.099,3.129,1.906
			C134.428,9.017,135.943,9.579,135.943,11.656L135.943,11.656z"/>
		<path fill="#FFFFFF" d="M140.051,17.143c1.1,0,1.979,0.879,1.979,1.979c0,1.075-0.879,1.955-1.979,1.955
			c-1.074,0-1.955-0.88-1.955-1.955C138.096,18.021,138.977,17.143,140.051,17.143L140.051,17.143z M138.73,3.445h2.664v11.388
			h-2.664V3.445L138.73,3.445z"/>
		<path fill="#FFFFFF" d="M151.453,14.833c-0.414,0.073-1.197,0.146-1.979,0.146c-1.297,0-3.689-0.171-3.689-4.008V5.669h-1.932
			V3.445h1.932V0h2.662v3.445h2.615v2.224h-2.615v4.692c0,1.98,0.611,2.224,1.662,2.224c0.416,0,1.076-0.049,1.344-0.098V14.833
			L151.453,14.833z"/>
		<path fill="#FFFFFF" d="M155.658,17.143c1.1,0,1.98,0.879,1.98,1.979c0,1.075-0.881,1.955-1.98,1.955
			c-1.074,0-1.955-0.88-1.955-1.955C153.703,18.021,154.584,17.143,155.658,17.143L155.658,17.143z M154.338,3.445h2.664v11.388
			h-2.664V3.445L154.338,3.445z"/>
		<path fill="#FFFFFF" d="M162.592,9.945c0.027,1.638,0.83,2.958,2.984,2.958c1.512,0,2.074-0.684,2.416-1.491h2.689
			c-0.367,1.955-2.201,3.716-5.105,3.716c-3.84,0-5.695-2.885-5.695-5.988c0-3.421,2.027-5.987,5.619-5.987
			c2.957,0,5.279,2.224,5.279,5.132c0,0.391,0,0.929-0.121,1.661H162.592L162.592,9.945z M162.619,7.966h5.57
			c0-1.589-1.15-2.591-2.762-2.591C163.863,5.375,162.619,6.28,162.619,7.966L162.619,7.966z"/>
		<path fill="#FFFFFF" d="M181.955,11.656c0,2.37-2.053,3.471-4.547,3.471c-2.443,0-4.641-1.442-4.641-4.13h2.59
			c0,1.491,0.928,2.028,2.195,2.028c1.055,0,1.859-0.342,1.859-1.319c0-1.076-1.146-1.148-3.541-2.077
			c-1.59-0.611-2.715-1.197-2.715-3.177c0-2.15,1.955-3.299,4.279-3.299c2.418,0,4.35,1.638,4.35,3.861h-2.592
			c0-1.076-0.537-1.76-1.834-1.76c-0.904,0-1.635,0.441-1.635,1.247c0,0.978,1.049,1.099,3.127,1.906
			C180.439,9.017,181.955,9.579,181.955,11.656L181.955,11.656z"/>
	</g>
</g>
</svg>
