<?xml version="1.0" encoding="UTF-8" standalone="no"?>
<svg
   xmlns:dc="http://purl.org/dc/elements/1.1/"
   xmlns:cc="http://creativecommons.org/ns#"
   xmlns:rdf="http://www.w3.org/1999/02/22-rdf-syntax-ns#"
   xmlns:svg="http://www.w3.org/2000/svg"
   xmlns="http://www.w3.org/2000/svg"
   xml:space="preserve"
   enable-background="new 0 0 984 240"
   viewBox="0 0 273.38199 124.12737"
   height="124.12737"
   width="273.38199"
   y="0px"
   x="0px"
   id="Ebene_1"
   version="1.1"><metadata
     id="metadata31"><rdf:RDF><cc:Work
         rdf:about=""><dc:format>image/svg+xml</dc:format><dc:type
           rdf:resource="http://purl.org/dc/dcmitype/StillImage" /><dc:title></dc:title></cc:Work></rdf:RDF></metadata><defs
     id="defs29" /><path
     style="fill:#fff48c"
     id="path3"
     d="m 227.587,14.679363 c 1.555,0.376 3.041,0.889 4.457,1.51 4.215,-2.796 9.268,-4.428 14.7,-4.428 4.642,0 9.006,1.19 12.808,3.278 -0.526,-0.856 -1.094,-1.696 -1.711,-2.516 -10.465,-13.8780003 -30.195,-16.6410003 -44.076,-6.1790003 -6.735,5.0800003 -10.844,12.3480003 -12.1,20.0680003 0.287,-1.731 0.711,-3.435 1.273,-5.088 6.339,-6.042 15.511,-8.854 24.649,-6.645 l 0,0 z" /><path
     style="fill:#1e1248"
     id="path5"
     d="m 259.552,15.039363 c 8.381,13.661 5.166,31.711 -7.889,41.555 -4.738,3.573 -10.162,5.602 -15.665,6.173 0,10e-4 -10e-4,10e-4 -10e-4,10e-4 3.288,1.452 6.922,2.267 10.747,2.267 14.708,0 26.638,-11.929 26.638,-26.636 0,-10.069 -5.588,-18.83 -13.83,-23.36 l 0,0 z" /><path
     style="fill:#cabdb0"
     id="path7"
     d="m 232.044,16.189363 c 11.604,5.084 18.256,17.898 15.176,30.642 -1.648,6.813 -5.797,12.354 -11.222,15.937 5.503,-0.571 10.927,-2.6 15.665,-6.173 13.055,-9.844 16.27,-27.894 7.889,-41.555 -3.802,-2.088 -8.166,-3.278 -12.808,-3.278 -5.432,-0.001 -10.485,1.631 -14.7,4.427 l 0,0 z" /><path
     style="fill:#ffffff"
     id="path9"
     d="m 232.044,16.189363 c -1.416,-0.621 -2.902,-1.134 -4.457,-1.51 -9.139,-2.209 -18.311,0.604 -24.648,6.646 -0.562,1.653 -0.986,3.356 -1.273,5.088 -0.027,0.179 -0.062,0.357 -0.088,0.539 -0.027,0.181 -0.047,0.363 -0.07,0.546 -0.043,0.348 -0.088,0.694 -0.121,1.044 -0.006,0.059 -0.01,0.117 -0.014,0.178 -0.658,7.482 1.342,15.225 6.223,21.695 3.265,4.33 7.434,7.578 12.045,9.681 0.014,0.005 0.027,0.013 0.041,0.019 0.451,0.204 0.904,0.396 1.36,0.58 0.009,0.003 0.015,0.006 0.022,0.008 3.74,1.488 7.732,2.242 11.742,2.234 0.045,0 0.09,0 0.133,-0.002 0.427,-0.001 0.854,-0.016 1.279,-0.035 0.086,-0.004 0.17,-0.007 0.256,-0.012 0.387,-0.021 0.772,-0.053 1.158,-0.088 0.107,-0.011 0.217,-0.016 0.324,-0.027 0.014,-0.002 0.026,-0.004 0.04,-0.005 0,0 0.001,0 0.002,-10e-4 5.425,-3.582 9.573,-9.123 11.222,-15.937 3.08,-12.743 -3.572,-25.557 -15.176,-30.641 l 0,0 z" /><circle
     style="fill:#ffffff"
     id="circle11"
     r="5.2069998"
     cy="46.763363"
     cx="144.994" /><polygon
     transform="translate(-416.86,-64.163637)"
     style="fill:#ffffff"
     id="polygon13"
     points="565.834,124.64 557.787,124.64 557.787,168.218 558.141,168.218 565.834,168.218 " /><path
     style="fill:#ffffff"
     id="path15"
     d="m 117.658,59.607363 c -4.846,-0.009 -8.162,2.399 -10.357,5.889 l 0,-23.983 -8.082,0 0,41.902 c 0.002,4.502 0.551,9.857 2.871,14.139 2.307,4.275997 6.461,7.443997 13.436,7.443997 0.012,0 0.021,0 0.033,0 7.027,0.011 11.289,-3.513 13.699,-8.122997 2.418,-4.61 3.068,-10.293 3.068,-14.787 -0.016,-9.274 -2.655,-22.437 -14.668,-22.481 z m 4.584,32.666 c -1.205,3.414 -3.213,6.012 -6.641,6.012 -3.559,-0.002 -5.641,-2.552 -6.9,-5.931 -1.244,-3.366 -1.574,-7.476 -1.572,-10.266 -0.002,-3.104 0.344,-7.104 1.592,-10.28 1.268,-3.185 3.334,-5.48 6.881,-5.488 3.578,0.006 5.562,2.459 6.736,5.734 1.156,3.265 1.396,7.269 1.395,10.034 10e-4,2.675 -0.304,6.786 -1.491,10.185 z" /><path
     style="fill:#ffffff"
     id="path17"
     d="m 178.328,59.607363 c -4.846,-0.007 -8.164,2.401 -10.357,5.892 l 0,-23.986 -8.082,0 0,41.902 c 0.002,4.504 0.551,9.859 2.871,14.139 2.307,4.275997 6.459,7.443997 13.43,7.443997 0.014,0 0.027,0 0.041,0 7.025,0.011 11.289,-3.512 13.697,-8.121997 2.418,-4.608 3.068,-10.294 3.072,-14.788 -0.018,-9.274 -2.661,-22.436 -14.672,-22.481 z m 4.583,32.666 c -1.205,3.414 -3.211,6.012 -6.639,6.012 -3.557,-0.002 -5.641,-2.552 -6.902,-5.931 -1.244,-3.365 -1.574,-7.476 -1.572,-10.267 -0.002,-3.103 0.344,-7.103 1.594,-10.278 1.266,-3.187 3.334,-5.482 6.881,-5.489 3.576,0.007 5.561,2.459 6.734,5.735 1.156,3.264 1.395,7.268 1.393,10.032 0.002,2.676 -0.299,6.788 -1.489,10.186 z" /><path
     style="fill:#ffffff"
     id="path19"
     d="m 11.181,41.343363 c -2.877,0 -5.209,2.33 -5.209,5.208 0,2.877 2.332,5.209 5.209,5.209 2.874,0 5.207,-2.332 5.208,-5.209 0.001,-2.878 -2.334,-5.208 -5.208,-5.208 z" /><path
     style="fill:#ffffff"
     id="path21"
     d="m 0.561,117.37336 c 0.839,0.264 1.399,0.438 2.053,0.438 2.893,0 4.945,-1.053 4.945,-5.964 l 0,-51.395997 8.024,0 0,50.869997 c 0,6.315 -1.773,12.806 -10.451,12.806 -2.146,0 -3.919,-0.176 -5.132,-0.79 l 0.561,-5.964 z" /><path
     style="fill:#ffffff"
     id="path23"
     d="m 33.21,90.009363 c 0,4.648 1.773,8.945 7.278,8.945 6.065,0 8.771,-6.052 8.771,-10.788 l 0,-27.715 8.024,0 0,31.75 c 0,4.122 0.28,7.980997 0.374,12.103997 l -7.465,0 0,-6.313997 c -2.333,4.121997 -6.531,7.278997 -12.223,7.278997 -9.518,0 -12.783,-7.016997 -12.783,-14.997997 l 0,-29.82 8.024,0 0,29.557 z" /><path
     style="fill:#ffffff"
     id="path25"
     d="m 65.664,96.235363 c 3.639,2.018 7.558,2.895 11.196,2.895 4.199,0 7.745,-1.666 7.745,-6.14 0,-9.033 -19.221,-7.543 -19.221,-21.137 0,-8.684 7.838,-12.279 15.208,-12.279 3.266,0 6.998,0.438 9.891,1.578 l -0.56,6.578 c -2.706,-1.315 -5.691,-2.018 -8.958,-2.018 -3.452,0 -7.277,1.492 -7.277,5.701 0,9.385 19.221,7.28 19.221,20.787 0,8.857997 -7.185,13.067997 -15.675,13.067997 -4.386,0 -8.491,-0.614 -12.317,-1.93 l 0.747,-7.102997 z" /></svg>